<mxfile host="Electron" modified="2024-06-22T19:50:04.067Z" agent="Mozilla/5.0 (Windows NT 10.0; Win64; x64) AppleWebKit/537.36 (KHTML, like Gecko) draw.io/24.6.1 Chrome/124.0.6367.207 Electron/30.0.6 Safari/537.36" etag="C5qTdnGeK5rwu0pxBxw4" version="24.6.1" type="device">
  <diagram name="Page-1" id="IfXCN_26sNDZPyj4Ke5A">
    <mxGraphModel dx="3329" dy="1421" grid="1" gridSize="10" guides="1" tooltips="1" connect="1" arrows="1" fold="1" page="0" pageScale="1" pageWidth="850" pageHeight="1100" background="#696969" math="0" shadow="0">
      <root>
        <mxCell id="0" />
        <mxCell id="1" parent="0" />
        <mxCell id="rzeLRMac2jVEvDv4LcSN-7" value="&lt;div&gt;yes i didnt put this anywhere before, but the crystals out of nowhere at the end is way too abrupt, so here it is&lt;/div&gt;" style="rounded=1;whiteSpace=wrap;html=1;fillColor=#dae8fc;strokeColor=#6c8ebf;fontSize=16;autosize=0;fontColor=#080808;aspect=fixed;rotation=5;direction=west;" parent="1" vertex="1">
          <mxGeometry x="-1485.1299999999999" y="807.28" width="303.58" height="93.41" as="geometry" />
        </mxCell>
        <mxCell id="R7KhLLLYdQG6cB8DqTUe-23" value="" style="rounded=1;whiteSpace=wrap;html=1;fillColor=none;strokeColor=#6c8ebf;fontSize=16;autosize=1;fontColor=#080808;strokeWidth=4;dashed=1;" parent="1" vertex="1">
          <mxGeometry x="-720" y="-360" width="360" height="230" as="geometry" />
        </mxCell>
        <mxCell id="f8EZtHtv26c98LFSckXT-1" value="" style="shape=image;verticalLabelPosition=bottom;labelBackgroundColor=default;verticalAlign=top;aspect=fixed;imageAspect=0;image=data:image/png,iVBORw0KGgoAAAANSUhEUgAABccAAAQkCAMAAACPE1aJAAAAAXNSR0IArs4c6QAAAARnQU1BAACxjwv8YQUAAAE1UExURQAAAAAAAAYGBgoKCg0NDRAQEBISEhYWFhwcHCYmJicnJysrKy4uLi8vLzAwMDU1NTc3Nzk5OTo6Ojw8PD09PUFBQUNDQ0VFRUZGRklJSUxMTFBQUFJSUlRUVFVVVVhYWFxcXF1dXWBgYGFhYWRkZGVlZWdnZ2hoaGlpaWxsbG5ubnNzc3R0dHV1dXZ2dnl5eXt7e39/f4GBgYKCgoeHh4mJiYqKiouLi4+Pj5CQkJGRkZSUlJWVlZeXl5iYmJmZmZqamp6enqKioqampqqqqq2tra+vr7KysrOzs7a2trm5ubq6uru7u7y8vL+/v8HBwcXFxcfHx8nJycrKysvLy8zMzM7OztDQ0NHR0dPT09TU1NXV1dbW1tfX19nZ2dra2tvb297e3t/f3+np6erq6u7u7vLy8uPhgoUAAAABdFJOUwBA5thmAAAACXBIWXMAABcRAAAXEQHKJvM/AACQSklEQVR4Xu39fWMcx3nveR86rdGEVsBI8RzKWnFl8zaPbcIJpFirRJZtmDRjhMpBdHzM9UqQeUdrYvD+X8JeVfWr6qrq7plpYMBugN/PH0Q/1FPX1HWh0TMA/9sFgEv4b8BsaFECGEUBBMyAFiWAURRAwAxoUQIYRQEEzIAWJYBRFEDADGhRAhhFAQTMgBYlgFEUQMAMaFECGEUBBMyAFiWAURRAwAxoUQIYRQEEzIAWJYBRFEDADGhRAhhFAQTMgBYlgFEUQMAMaFECGEUBBMyAFuU1+PmdO9/7T20nvQejX995oi3vfHkn+Jv/V0f25ndvfb9vFOsf9ne1/uHfvdLmYN3X5Jsf3Lnzj9p2U/SBtryhoZWV9mzkfBRzef2urzsFEDADWpT7981bPSm792BSZaXry+Ou5SNt53bJ40N1Xw8/J+0slTM2NLSq0n6NnQ/yOLB3WpTX4td9Kbv3oPy8SKNVWt+nG3s//s1bNpL/RzudKRoYWlVpz7gfB6amRXktRufxL4sHK9eYxwfslMcn9c1bxZzsNkVVpWmRx4G906K8FqPzeJlwyONd5PGRyON4E2hRXouteXz9rwd37nzvo/8d8+f5Mg+6KkmVhX/+vf/8w8Gdv/lPV+UPf28nfmw11//61p07//C/VeEv/8P2/vafQ4uxvN+JCfsvP8iK20H/NN53WnamZLA+vGNfwyE3uH//71ZG7V9c/Nehe/jfXoysXak7f/+7WKz/MuxEMdyWb/Zvf3zmtv2D7vxxtBvFX/5HGkXvZeWVRs9hUFarLj0eHGyjdy7LMdaFOqfbn9TCs7d0vj4x0N01UAABM6BFeS225fEvLdq9fwzBG/OQlHm8Kvzz7/3Itv/uleWPfwnH/+6VErE6+J0qfM8HeizvT6kj966r+V04Zgf9ruu06iwkAzvvk5Q/ZIP7dSiiNmN36WIC91ERT6MauIx6uMkf4mE3yr48rovwo+i9rKzS6DkMqmrVpcf5GGqjdy6rMdaF6tN1um7Pd/J4b3fXQQEEzIAW5bXYkse/vHPnI7ulWrtUFWLQ3SH6r54SUDhZF/75nTvfd/djrtD3f+9v0P7xh9+zu95w0+wqfO+f7Sb2v/71LZ8ZY/kg5J5fu7z87/+97TIc7nbmk8Fflrqn9YVcvy63Wnf+qGU2d89s3RWfr7GE8w//y77+3/8jpLWhy6iHG1l53+zhnZCvOs9V/vat7//Pi4t/f8uPYuCyYqXRcxjU1apLb+dj4HXomct6jHWhziVU6bo9X+fx/u6ugwIImAEtymuxOY9b5Ot+y7Z8DFY1XGqIebxT+OeqYrshUG0jVF7/0H09X/6NS1F+3xWI5YOQe+JP4onyeKcz18Qf3vK3xLGQzsTmv3krjtzSfdus3ZmqpYtv/sGPavAyyuHK+TI2+4dQsJPHdfX+IykaWueyVGlD5/1zGHSq6UscapqP3jY6tfVyhBakU6hzCVW6bs9XJwa6uw4KIGAGtCivxeY8/mW4kXW+eUtxWfwmUP5cpVP45zpg4RqqWMpUEd9I1tI3b9lmLB+E3PPr4phRHu90ZsngX9LtfMxb8TpCYsm78414WUve4GXUw5VshGGzk8c1ijCogctSpdFzGHSqVZce56O/jb65tMRajrFTqHMJnfvxeL46MdDddVAAATOgRXktNufx7BmK8qeLz5Q+XGpoc1ancEycdiMbqrap1If2z3Uv71lsZ4nWxLR35/vuoUeicXQ6s4K620yH3Pt6Yd/lD1X08u3iOZEZvIx6uOJzUxCScSeP56NQm53LUqXRcxh0qvV2Ovg6dOfS1S7H2FOouoQqXbfnqxMD3V0HBRAwA1qU12JLHndhJnF7OI/XhWPAZkklNuxC22XelrWTBbgJMe6e4d7Jf4lFhzududZSOgiFymTW7pmset6S02lZw+oMN9B4vDAbu+TxzmXFPD7Q+dAcSqdab6dDbXRqK7EWY+wU6lxCla7b83Uer1sij+NNoEV5La71flwHdskfTtaASR26T8i1XepwpzNLBv9y5/tqMBxqB+d6akeRGvHKXntajgfq4Up2eOB+PB9F23V5WYP34zqwJY/X1Xo7HXwd6topsWZj7BRyG8UlpOcl9fnqxHB3e6cAAmZAi/JabM7jX7b3neFRpilq5Hm8UzgG7FD+KL4jmCzATcoG7n3JNtB1uNOZSwZ/uKN3IkOhKpllzaeLMVlL3uBl1MOV7Dlx2Nwxj5eXpUqj5zDoVBuVx3vnUgfSGDuFvJ5LyPsJ56sTm7rbMwUQMANalNdicx7PPlrwA30AIiSGKM/jncLbclD2AZD/48dWIp31soSXbcbtTmc+GXypj6TEvBUH58f8ZbwCO50285YuvnG/trLhMsrhSvuWovLbznk8vyxVGj2HQafaqDzeP5dBGmOnkJdfQpqILFH789WJTd3tmQIImAEtymvR5vEv/cfivOzgnTsf/S+LNPsBWcGbR66LyRSy3cJbc9Cv77hPMfsPdLsb2XTWCx0d/rP/mHPbS+y/7iwkg2/CJw9DoSqZXfw8fP47fW5Zvuz5/HjfZdTDjb68873Nnx8vRjFwWbHS6DkM6mqj8nindpjLaox1oc4l+PmxAv8SpjE7X54Y6O46KICAGdCivBYpZds9atzMb9KrX73Lk4FT5PG68PYcpN85vHPnx24vnfV87tEvBWYnYh6vO1My+MsPXI7tz+Opu+/9z9iIp06GfruxHVY53CT9mme4zdwhj3cvK1UaPYdBVW1cHu+dy84Yy0LdS7Bq/lD4ME9+vjhh+rq7FgogYAa0KK/FlvtxC7Lyj2pYfOb3omUerwrvkIP8HyyxCn4nnfVCG2v3p0t03ovjqDuLycByxo9VqJPH099HqTLH+l//3pLKhr+vouPlcFvhcPj7Kjvl8e5ltZVGz2FQVhuZx3vnsjv1ZaH6tPmDFYh/c6U4n58wfd1dBwUQMANalPMw8G7fDZDl4+rbD24pBRAwA1qUsxDuoG6kb96KH0tsfw8Gt5oCCJgBLcpZqB4a3Ch6n3L97z9of2MIt5kCCJgBLcpZuLmPVcyhe2/NIY2/GRRAwAxoUc5B+yc6bqTwhuQ//F67uOUUQMAMaFECGEUBBMyAFiWAURRAwAxoUQIYRQEEzIAWJYBRFEDADGhRAhhFAQTMgBYlgFEUQMAMaFECGEUBBMyAFiWAURRAwAxoUQIYRQEEAAAAAAAAAAAAAAAAAAAAAAAAAAAAAAAAAAAAAAAAAAAAAAAAAAAAAAAAAAAAAAAAAAAAAAAAAAAAAAAAAAAAAAAAAAAAAAAAAAAAAAAAAAAAAAAAXMEFgEtQAAEzoEUJYBQFEDADWpQARlEAATOgRQlgFAUQMANalABGUQABM6BFCWAUBRAwA1qUAEZRAAEzoEUJYBQFEDADWpQARlEAATOgRQlgFAUQMANalABGUQABM6BFCWAUBRAwA1qUAEZRAAEzoEUJYBQFEDADWpQARlEAATOgRQlgFAUQMANalLfV2fLdV9p01h82n2hzPFW+Uhvj7NjVaxxR7grdTjTivVIAATOgRXlbWcJ4qk3nSvlDlV9jDtqxq9c4otwVup1oxHulAAJmQIvy5jhZFpnZef542TSLR/mNd3La5DfkVf5YP159ps1NVEyVX2MO2nG4E2XFK3Q70Yj3SgEEzIAW5U3x8v2mqfL4+Yd2yHn7hY7kzu8uvtKmqfLH2bLI8kNUTJVfYw7acbgTZcUrdDvRiPdKAQTMgBblDfHEbrw7efydh3+0zHDU9Ce5wzxjVPnDvgV8rM1NVEyVX2MOGhjuafP2X/0Beb1ZMfV+hW5f74ivhwIImAEtypvhuGke/an7XMWz1JDfeSfHeXq/Uv5Q5deYgwa6Io/PgQIImAEtypvh+OEL93ChN49bwu7N42fL7PCV8ocqv8YcNNAVeXwOFEDADGhR3hxb8/j6tx80TXMQ3/Y8v5uVd/lj/cWyaewbgnb91y/esxpP3GZwnOWqB7FY+aXu57nbc8Ltv9+9/8yfcuK3k1hb6bBspB6HK9wZrv1Q4rU/ZqRi912xcuxR0ZGdebo+Su228lF3arj3Jj7Jek/dxlY0hvO7/srKC+0056fyKLypUU/WjaAAAmZAi/LmGMzjhyFfWN5uFitLKPdSNgv5xLGdh+6dUivismpMJx9agrEM2pZLnfiNtlj2perH8pvfa1aPQhnbtb3UpBX329ZgSMCHLsmWjXTGYQe6wz1x5Q9Wvp+gLeZGXY5dOh390o1V7Uau/zTq/hoPst7bbkMr59r5TV8e7zTnTh42Cxth0e3NoQACZkCL8ubIs1POEoW/+zx/51OXJ62Y0oJPmOJThp0/WfqDSieWaeyucH3U5hE7ESr5m1sVK7+U/dgXdxv9RPfClqBcajvJ3pM9DPnb5Xt3yoZrp8pGOuOwrnqGG+9wk1js5V3Xtu2F7xTpxtyUHVXtRsWoe2o8uVh/m/Vet2LVbQ6eWzZ3BexsuA7l8bo5+3Lk03jfZN0ECiBgBrQobw7LBL3hrmyQpPStBOpZ/gilQo5TrjkuspmnHBgKqFj5JQr96N1UO+cGl57JZ99DTn3PViDcd5a5ODZSjcNK9wy3L4+HYiFLhp5S6ULoqGpX+kad1YjTnufxvBWlaHc4H2zvlfqTehDW3+38KYCAGdCivDkG8vhp/WN5+pxK/oGVLLm45KFd26mfzdrtsjsTcoyKlV+i0HyZx1OXWQ4LLZ7fXfzEnyyTVqjQGUfqqhhu3qqXitmGtVqMvRI6qtqVvlF3amRnq1bS94RQIDubj7ZtLr6f0d/t/CmAgBnQorw5+vO4HVU2sCTx/Ker1SodSHnCpORSJ+jmXpXJw118kcTKL7aR9WP9u+cqyk2HTWNn/Mk2NfkWT5t3T1yZ8FjF5I10xpG6KobbSXipmEadjz2pOsrblXrUvTWy3qtW0s89A3m8vtJ4g987WTeAAgiYAS3Km6M3j+dp/CS8g5c+0LE9j4cPWrhHvS1/j2nnXV8qVn6p+rFs5N/G86dsJ3o3pSbf4mHzib9djsmtbKQeR+yqGu5wHg/X6kun7xRB0VHVrlSj7q+R9V61siWP1839012V752sG0ABBMyAFuXN0ZfHX8acYE6b5uG39jWl75RfTJV6suzk3p7Ln3Tk2VbFyi9lP6fNvZ9YItJn5/IuE9ei/ysB7qweq3QGW45jYLjDeTx0bPsPqkJlR1W7Uo56oEbWe9VKqh4KpLNht9ucvZD+Qnsn6wZQAAEzoEV5c/TkccuQ4cN/TkwLKTXmT6Kr1JNlJ1chy2mhvqqqWPml7OewGFTx9mFiNU7cCbsx/w/dLHcGa7JxDAx3MI/bhh+w6798AF92VLUr5agHagzn8c3Px3uas9TuSvRP1vwpgIAZ0KK8Obp5/Pz9PBPE/BUTR5aBOqmnOFfkNL8bs62KlV+KfuzYA99b0Pczg0toi5+4SvZt50fK1fVgnWwcaXzlcMP7ii07Hg5YZvT9Wg+/Kx+rlB1V7Uo56oEaWe9VK6nz8HLYWX9N9jXk8W5zx75G/2TNnwIImAEtypsjC/sjfxuuRBGF29n14/Ag1ue0Nk1UqSfsrj9yT6TXn5f3hXYuNqFa5Zeyn/BrjovV/We+xqE+efLdUfZLojaSkOrcE+HQctFIdxzqqhyun4JPLtZf+zOOHW8Wn726eJ7eKWx7kHK0VbtRMeqBGlnv3dH5z48vw+fH3ZR8bGPSx8n7mnM17GDvZM2fAgiYAS3Km8Fu+cSlBqWB9qA/6rKl+6XIlRJZkaq6qSekk+bA/T5heVvoUnMorFrll7Kf9c8sibv3OUOv/lcbV/XvKFp29RnOjTgcLxrpjkNdlcP1X024PGf94eJpeBcxXmrbg1SjLduNilEP1Mh6r1uxBO8s/q9wlaFc/PXO3ubsoJ3rn6zZUwABM6BFeTOEu17HZ4pwP17l8Qv/h0PuP4v/gUT+6LlOPdr1f9ZkUf+tEUsySnKxWPGl7Cf2Znej4aT/kyEH7i/qtmyk/umLS1/xT5LkjXTG0T9c27Db2kX7X0pYHv/qpTuUqlrJPEGbsqOy3aQYdX8NE3vvtOLH8Ojb+ADdN/BQf26lvzl/b98/WbOnAAJmQIvy9ooPZq9V+79VvJbutssfuL9u9duwt5QCCJgBLcpbq/z/gK7L2VKpK79vnZDd8ZcPiV4n8jjwmmlR3lrxgcf1OluGJybrz+vnGdOY9LN85HHgNdOivK3s/vi13JgeuQe8K/d4ew6fubCrnvDpDnkceM20KG+rs+Vrek78Z/d/9jcHn7rfWZzc2dL/QdiJkMeB10yLEsAoCiBgBrQoAYyiAAJmQIsSwCgKIGAGtCgBjKIAAmZAixLAKAogYAa0KAGMogACZkCLEsAoCiBgBrQoAYyiAAJmQIsSwCgKIGAGtCgBjKIAAgAAAAAAAAAAAAAAAAAAAAAAAAAAAAAAAAAAAAAAAAAAAAAAAAAAAAAAAAAAAAAAAAAAAAAAAAAAAAAAAAAAuOUuAFyCAgiYAS1KAKMogIAZ0KIEMIoCCJgBLUoAoyiAgBnQogQwigIImAEtSgCjKICAGdCiBDCKAgiYAS1KAKMogIAZ0KIEMIoCCJgBLUoAoyiAgBnQogQwigIImAEtSgCjKICAGdCiBDCKAgiYAS1KAKMogIAZ0KIEMIoCCJgBLUoAoyiAgBnQokTtbPnuK23uy/rD5hNt9jl5r2nefbWl0G5Om7f/qs0Rxna9l6HeWAogYAa0KFGzJPVUm/uyOe+dNs3ivcVX5PEbQgEEzIAW5ZvgZNnJzM8/WFr2fNR7431qN8fa3JONec9OPtBX8vhNoAACZkCL8vZ7+X7TVHnc8lDQm/TO7y6+0uaebMx753fD6MjjN4QCCJgBLcpb74ndeNd5/Pydh3+0bHTUhDvh2uGeslRKqhvz3tkyfNvYKTluy9Pl+S2ldxtfD/I4MA9alLfdcdM8+lP3uYpn6ag3zx3v6cEKefxWUgABM6BFedsdP3xhmbI/j1vC7n2CEjPrVZHHbyUFEDADWpRvgg15PCSy9W8/aJrmIL7tGZ9YB9VJWbsPCx488ZtFgfUXOmE/CXh2b9/mveeu6P1nYceJpZ7WhQ4efet38tazJk3R1vqLpe28yDN3T+nYqFONzzdg3/SCzjhNurI41PVR8/aLOIfuYO9TqltHAQTMgBblm2Aoj1u+9pnHvjaLlaWxez23p/XJ4Ny9eWqsflnA6jYHlu8+uThxxw5Wq0dtg+7kYmXV2uZPVy45rlb/1hZ6HJpuFm7QRetZk1VbcTyrLI8XpYtGvXJ8D0MD6UeDepzhYLiyONRD11qa3MHvlreNAgiYAS3KN8FAhnkZH4+fv/Opu2W1Yspbh9mdZeekZynMbkxfvm95ryxgN8R2T7s+0nZIqsp7rpbLkyfF+671c5XDpnE338+XvnbVfXu/XbYVxvPcknGbx8vSeaOSj69ZWD8ny3DhvePMriwM9ch/U7DtcMOfbsxvOwUQMANalG+Cnjx+vHJ3o+kxQpDS96FSUy7P7anF9Uc+BXuhwHFWrM7j6bl71VaRx9M3jLThqUpqsmwrlrU28mSale5rNB9faC3k4v5xZlfmhxrfXDgNXzX8N4ACCJgBLco3gSWvOo/b/alTPvROn1Pp+8BKcazv3jMUsKyWnirXeTw1kU44VR5vmy6+m6huqlm2lSoVLeel4+G80XQ65eCQk/vHmV2ZK5/eIz6/6yun5H/rKYCAGdCifBP05HHnu6P0lGH9/Kcrd4eu/JUSmVeddMob9ryApbjmnvJdnSftm4eV80Wz/Fjl8bZpJd+i+9Rk2VaqVGTevHTVqFePL46lf5zZlbnN9plLaLycs9tMAQTMgBblm2Agj7tEFp4VnCz93Xn8aEeZk+qTTvHAoSzgP/fhHjZ386R+CHDebfNjJ4/HpkPKLVvP83hkbW3P42WjwYY8HmXjzK7Myv/T3TQfvpLdlffP8e2jAAJmQIvyTTCYxy0fuWRk6fyh+zxeSt/t7WvPSWdzAfd2o8ub3TyeNZFsvh+vWs8yc95W2hvM40WjMpzH87ZzujJX3iZV3xts70HV8a2mAAJmQIvyTbAtj8e8leXxePvac9LJs2FfgfDwuM6Tea1WlcfbQr7hqvXUZNlW2ivTaU/p2J5Tjy+OpX+cgb8yX96+w4RKvnzxE8rtpgACZkCL8k0wmMd1TxlzUMxxKa059UnPcphvcX30tLdAyIf6JEdqsH8cVR5P6dFK20bVemqybCuO5/z9IgWn0lWjUo8vjqV/nIEvEcofx0fk53eb3705j1XI45gRLco3QZaXjvzv0xzf+5V7VvF8GRJZuHt2vyoTMnHxrLc+6VkiC58ft4JFgfVH/vnx5z6d+qS5/toX93nyUB/5+O7I/VakVHncvjQfWxsn4Z3NqvvUZNmWxmMXVOTxfAB5o9IZXxxL3zjzKwvlXad+5Fa+mJ1bTgEEzIAW5W1nd6LiEpxST/yVdJ/8fN72v6m4UjKKmdWrTwaWAr1Hr8oCLmEeuN+EdN8I3E7I7sqT/rcuV9UvSlZ5PP1qZvj90Kr71GTVlsaz+M3dPI9XpZ38t1I744tj6RunKxyvTOVtbKE3N8ltydtOAQTMgBblbZdSdkg54X784uUvLDU2B5+6u3KzPrI0eP9Z/A8kikfh9UnxR8PH8IoC/o+QLPQLRu42evGZfY15ch3+yon7q7lJnccv1icuXa6ehO6q7mOTdVsv7Xjz8MV5kcfz0kWj0hlfGkvPOLMri+X9DX3Yz77z3XYKIGAGtCjR9Qa9Z7cnxZsHt50CCJgBLUp07P//A7rtzt+gdznJ45gTLUp07P//57ztNn1Q8fZRAAEzoEWJ2nr//1/+LWcz9iY9iFIAATOgRYna2ZLb8XHOlu1fNX8DKICAGdCiBDCKAgiYAS1KAKMogIAZ0KIEMIoCCJgBLUoAoyiAgBnQogQwigIImAEtSgCjKICAGdCiBDCKAgiYAS1KAKMogIAZ0KIEMIoCCAAAAAAAAAAAAAAAAAAAAAAAAAAAAAAAAAAAAAAAAAAAAAAAAAAAAAAAAAAAAAAAAAAAAAAAAAAAAAAAAAAAAACAGbsAcAkKIGAGtCgBjKIAAmZAixLAKAogYAa0KAGMogACZkCLEsAoCiBgBrQoAYyiAAJmQIsSwCgKIGAGtCgBjKIAAmZAixLAKAogYAa0KAGMogACZkCLEsAoCiBgBrQoAYyiAAJmQIsSwCgKIGAGtCgBjKIAAmZAi/Lq1h82n2jTOVu++0qbV3TavP1XbV5WNbbRrlq/h5oc3fLVhnINF7LV9fR58l7TdFbYa708BRAwA1qUV1fFkO0+1eYVkcdzVxvKNVzIVtfS52nTLN5bfKW96LVengIImAEtyu1Olp3E/PyDpYXTo3BXVMfQafd26XLml8fXj1efafPS1GT8snOLVxvKVSdiFI3tOvq0Nh9oM7dzV51pu8RLqgACZkCLcpuX7zdNlcctaIKQZusYOr/buV26nPnl8bPl1b9HqUl92b3Fqw3lqhMxisZ2HX2e3+39aW/nrjrTdomXVAEEzIAW5RZP7Ma7zuPn7zz8o4XOURNujToxdLin8H0teXxzJ1X98w+bj7W53UDLalJfdm/xUkNJY9g8EXuY6ZzGtrnPyzlb9t4k7NxVZ9rigRFToAACZkCLcrPjpnn0p+5zFc9ixy/9Tgwdj77D6beH7LI9vjd3cpVUNNCymhzd8qWGksawufYeZrrHVSZvyFXz+KARU6AAAmZAi3Kz44cv3E+evXnc8rWPqU4MDcTaaHvILtvje3MnV8kPAy2rydEtX2ooaQyba+9hpntcZfKGkMeBnBbldhvyuF/6LobWXyyb5v6LcLx6hrn+7QdN0xzoXVF57o454dbd7x48+tafu1BrZWitv3jPijxxWx8uvgpFnoVTobr2iu4U3+uj5m0bXNtEZD9veH2jcNK12fcz7YYvT9dHy/BOr/scXLzyTE/LYYBtG+UX36L66cyPcSVHDiUbQ1W7mKVyqF49ieXgovaqtBR82QfZ2NwXryxgyhnZePF5N8HTtu2wSPKunMHFooKuS/fOzyc60DMFwxRAwAxoUW43lMctXcfn4w/dm6EmlCuDyoo1i5UF0r0sKVvc+GPN6pHtrR+H6s3CN3Cu1lZ5HrdGmwMLTmvZQvP3KuL7cacWK+2V3Wkoh77lrInoxJU8WPWNwrMqurb8Rw/78ks3eIv7r8N7vt2bxKLlfIBtG+UXtRhaKufHsyJjh5KNoapdzFI+1KAzicXgxA6nq0prxG+0Y3NfvLJAUbfTfrU4sqKnK5eeV6t/a9vuzeOuTv9iUUH74ruM33O6U7CBAgiYAS3K7Qby+Es9HvdBs/j01cXLuzHOD0OCD87fsXO+lTbSbMfdKz1RC4dN4+78ni/DvmVdO/vcoi/L4xavdre2PvKhWXZo5d2XE/99pOwuROlRSM1ZE632pr8ahRe7Oln6SwrNhaNPLtafu+xgdXS2krecDbBto/yS91PNj1cVySsODyWNoapdvSjtUIPOJOZ1o/yqrEg45e+727H51p2yQGdGNlx8UdRO+r227TD0vCtjBwcWiwr6ozZt36aa9RRsoAACZkCLcjuLKxdBueOVu3+JP6J/GCItZQULvZ6fT/PkrndCrWaITdULG3HXzmahddxWrzpMj0yLbx9hx0epnuPnTbRS/FajCFJXIf345tqj9jUUTU8NclnL+QDbNsoveT/l/ARVkaqife0bShpDVTvSlA0lsTSJPXXLq9KpMKrwb/wSFAU6M5K3Xy+OvGjaTW2HoRdduSb8ZTmp8fCyqqB90dTGmkNT0EMBBMyAFuV2FgB1HrdbV93/mRRDthHCp/cDK/nBMlTb9OC/AaTdIrROm4V/wGmqDlPDRflw1BWNaTxvopUqVaMIUldW1xrRbjoaS/YmgazlfIBlG3WLoZ9yfoKqSF2xfyhpr6odqaPe8Zt2Ev1uUbe8qvO7vkxIs/XYnKJA74zE9suLL4vumMetoYHFot22fNwamoIeCiBgBrQot+vJ4853R3oA0cZEzCUp9oL185+u3A18e9CadD86K8O2edPn0rRbhJb10twLwVl1aN9UrHnfQxhP1p2rFe+88iZaqZNqFEHqqj9BxQvtTQJZy/kAyzbqFkM/5fwEVZG6Yv9Q0l5V2w7kL0p3/NUklnW9atrD9IVR1GPz8gK9M9J/8VU3afixThh62ZXbHVgs2m2Pxq3uFAxSAAEzoEW53UAed0vf33+3MRFzSfwanIT3sIoPA1h0+reyfEX9cG825PHwIRb3pLPu0NqK3rXyRXdW9J/upo7bJlqpk2oUQepqTPKUrOXEBli2UbeoPFXMT1AVqSv2DyXt1R2UL0pn/PUkFnWDatr9vbSVdEulHpuXF+idkf6Lr7qJQ0h1wtDLrmx/aLFotz0atzpTMEwBBMyAFuV2g3ncQqAIc4u5kEtSJnYs2z90n+TLk/tpc+8nFpjho2BZ8U153Li3PtufjY0vWvRWdeeK2vhjhk5NtFIn1SiC1NWY5Ck9LTtlG3WLoZ9yfoKqSF1xXB6vXpR6/N1J9IdjEvXKqwrPTdROPTYvL9A7I/0XX3UTh5DqhBbLrrz+xaLd9mjcqqdgAwUQMANalNvtnMdtI6TI9tbWxECMicY5LFps86Yvm3Z7Qsv/sF11mKVdU3bni1pWUtA6xcOKrJNqFEHqakzylJ6WnbKNusXQTzk/QVWkrtg/lLTX6SCfpc74eybRiUnUK68qlNULX48tyAr0zkj/xVfdxCGkOmHoVVdB32LRbls+btVTsIECCJgBLcrtBvO4bnQtEkJsWb70BdsgcWJSL7Pjg7htUp61Bm0jNnP+fje0fBhXHZbjK7sLQzlOj8hNkYxcG9qtRhGkSwm1tJuO9idPSS2XAyzbqFuMF5jPT1AW6VTsH0oaQ1W7elFSMembRFNMXXlV/uR/6BfA6rEFWYHeGVH7tpdffNVNHIKV8iO3r4N5PDYXaoTFooJt+bhVT8EGCiBgBrQot8si6cj/YsjxvV+5H7qfL8PSt0hoFp+9aj94bT9BZ6EX7n/dL9mEROOEX59brO4/Uyw2H9vGSXpbzX9+fJl/fnz9kX/Y+bk7VHd4qE8nfHdk1cruQpS6Fi2isyZadnWfXKy/9oXyUQShvgn5Q7vpaJU8y1yQWi4HWLZRtxj6KecnqIrUFfvzeH51ZQe+jfiitEMN+ibRhLpRcVW+VHyJ67EFWYHeGWnHVlx82U0agpWyVyv+kkHZ1YbFooJt+bhVT8EGCiBgBrQoN7ObGFEQtIFmXLp1RxdPw9tiCrEy3C2r+9+tW8UYNuufWZy6t7LCsfgLnPqVTwspZ/Gbu21KcuF44H6rL9xT/Sjv0Fdf6Vf+yu4UpXbw7b/mTbTc0TCMahSe6sdr0m46WiXPkP6iquU4wLKNukX1U86PVxepKvbncTsdGqlqVy9KKia9kxjrRsVVGbcswpYqpHrSFuidkYGLL7tJQwhDjouk7MqdG1gsKtiWj1uuTj4FGyiAgBnQotwspeyQHcL9+MXLX1iMNwefurtyFwGLr17ardsi/nmMmFLE/+mM+8/y/14ibttNUgiiExd1qycq4FprHr44z/J4+IsZoQsXeu5eMXW49n+B48D9Nd2quxil4W6rbSLjW/L/lUA1CifF+07Js8zjecvZAMs26hZDP/X8OFWRumJ/Hk9jqGrXL0o71KB3EmPdqJh2n/x1uh6btAXKulX7ncWRd9MOQX+RJSySqqvhxdIZWtqqp2CYAgiYAS3KaxCfrg5q/6eJrUX7VEE7GzauS1xNjyvOz82254u/hsWiAAJmQIty/7b/f0BnS90zXi7I5prHq1vhy7vi/Nxse7548jhuNS3K/Ys/Fw87W4aPJKw/Lx9E7Gim2c09X9LmFV1xfm62PV88eRy3mhbl3lngFG8k9jlyDzzd3yAN75SONNM8frq/UV1tfm64/V48eRy3mhbl3p0tt92Omz8/Xrpo1TulI800j+/TlebnptvrxZPHcatpUQIYRQEEzIAWJYBRFEDADGhRAhhFAQTMgBYlgFEUQMAMaFECGEUBBMyAFiWAURRAwAxoUQIYRQEEzIAWJYBRFEDADGhRAhhFAQTMgBYlgFEUQMAMaFECGEUBBMyAFuXu5vJnTbb+edi5/f2VXcezn3FfoZW9TdyV/oLv1UZx8p77X332diV9FEDADGhR7u5aY2ME8vhGV2hlbxM3XR4/bZrFe4uv9nYlfRRAwAxoUe7uWmNjhFnk8fXj1U7/B5iz63j2M+4rtLK3iZssj1td/38I7e1K+iiAgBnQotzdtcbGCLPI42f5/6q/xa7j2c+4r9DK3iZusjx+fjf88fu9XUkfBRAwA1qUu7vW2BhhKEmk469joOcfNh9rc6st49nPuPfRyt4m7jJ5fLcL2NJy/G+Yd7qSy4zSUQABM6BFubu9RfkVDYXfbolgAlvGs59x76OVvU3cZTLkbhewpWXyON4wWpS721uUX9FQ+O2WCCawZTz7Gfc+WtnbxF0mQ+52AVtaJo/jDaNFuTsXG+svlk3z8EXY/+0H7r/fehQeE6+/eM92yv9R8bkrcP+Z387Pr92Hw8J20Yj7n4p9D6pTtmBNuFMv+sPv2Ao6776qB5piWhV7Rjo8oKGqOmNfnq6P2jkJA3ayp+dpPPdVKJQ6eOT+47LhcbeKeazG9/Tl+03zyaZW1PX5XXcJ7qw/Gq+o53LXR83brm4x+VGn/+Ly1Vf9Eg3Nbzuh1QX4k90BZKVMNotBPP20biMWyjsv2xpDAQTMgBbl7iw2HlrOMP6e5/yubawsbO/5fPChxYfFpKLHcYcWKyvuc0N2/jy04j5ZUDey+L3O+XaKFlK1VW8eP3GtHKxWj3y1fKC2G0YVsks+EtkwoKGqOmNffmmFTbgPtOTgazduHJEV0nj0JtzjsNMsbHd43JHrNc1CZ3y++wcbWtHFLX7Tl8d7L/fQD6zoNunvv+qrfok2za8mtLwA32XPALJS5SwGp+5/Z7bT/9a2URQqOs/bGkcBBMyAFuXufFx9+uriZOk/23X+jm37D264iLG0YLdk66Ms6C0duOA+8dkrP28n7A7s5ft2umwk9vDybqhatKBqzy0nFEkiCZnJVAONMa0C/SMdHNBAVZ2purJq7qbzSTnCWKi9rMbdET5fhmJD446KWeiZsCcXa7vbHGylnDY7m19R3+UehaRXTn7U/4L195UMzm82ocUFuP3+AaRSdrqYxaB+rlIWKjvP2hpHAQTMgBbl7iw2QpAcF+v/0IfwcZF6nBhSoUB23sLIB+b6o3DeCY2kHkKklS3E6LNC/eGXJ4J8oDGmVaBvpBsGNFBVZ6qujsNP6XY0z32pULwsNaqNoXFLOQtRGl/saaiVatrsS+g8lfeyyz0O1fu7TVKFDX1FdnhgfvPXIr8A10r/AFKpehaDWCm10VcotlhOwe4UQMAMaFHuTrHh1r8izAu5y45VD1KV0xQu2fkiS0konHqwDYu0soVUbSj80vFqoNmuK9A30m6D1YA6VXWm6kojtqNVHg+FbMNfVuzu0BcfGreUsxBV4xtupZq27GzWWtac0vhAt0nVf29f0fD8ZhPa1lGj/QNIO/UsBlUe7y8Um+6/su0UQMAMaFHuLgVtCpbnP12tVuEXYuxkc6/Ij/YjrZ31BSxcsvNFSNWNhB5CmbKFVG0o/OpEEAeadkOBvpFuHVCnqs6kAqEru+1zz1ViLpRUKF5W7C6kmaFxSzkLVqp3wgZbqaYtnY3l6xcx3uDX3Sa9/ff2FW2c3/Ra1BfQP4BUqp7FIM5caqMqlHdejXJ3CiBgBrQod1cFrXsoGvig8J9UcM9KI4vD6F0Ll/Z88XNy0UjqIdwxlS0MJIlWnQjiQNOuCvSMdOuAOlV1purKDdm/kRYOSioULyt2t2sej9w8DkzYYCvVtKWzKl839093Vb7qNunvv7evaHh+89eivoD+AaRS9SwGceZSG2WhsvNylLtTAAEzoEW5uypoT5vmYfjgnILXv7/VRmx7LxTpfH6ibCT1EMqULQwkiVadCOJA025bcXikAwPqVNWZqqvT5t5PLEtUn9VLherL2jGPt6MbHN9wK9W0pbNht9uc/UjhZ6bsNhnov7evKG+qrO/E16K+gP4BpFLt6Y15vChUdV6OcncKIGAGtCh3NxC0bUS67TYB5eEV+fP5ibKR1INtWGiXLaS9ofCrE0EcaNrNKw6NdGBAnao6U3V1WDwXj1Ih2yguK3Q2NG4pZ2FgfMOtVNOWzobdnuYs2bkSZbfJQP+9fUV5U2X9ILwW9QX0DyCVak/HJp04c502fKGq83KUu1MAATOgRbm7Kmjjz6x9YeTYjV0nqfnzlijCxxeOnlaNWA+hfihSthCrnb8/EH7p3cFqoLbrR2hf24r5SDcOaKCq+tCX9uCDNBctOxw6Cx3Zv7GO3xgat5Sz0BlfqDHcSjVtdja/or7mjnsmPxnov7evaHh+g1i5vID+AaRS9SwGcebURlWo6jy1NZICCJgBLcrdVUEb7qLcL1pYUKw/8g+NP8/j91AfRvju6Elx3toJHye2OC0acWeaxWev0meC8xZiNTsXTnai0Mfq+mtfMh+oS0wfW6P287vrvTvS4QENV1UfVVfhdwQXq/vPXOXICuWX5XatUfew1vcxOG4pZqEzYaHGcCu2W0xbcUW9zbkadrDoNhnov78v0eHu/BavRecCegeQlypmMYgzpzaqQtWLm9oaSQEEzIAW5e5ifClY3C/Hud/FW/mItIA5cL97l91C+d/iW4VfyCvOW/x4j16VjbhSPwrnQjTmLaRq+sVEBWXG9RHSQzlQnVDFYiQyOKDhqupDX2JX659ZEnfvc4basv5w8bRzWY7/nUb10TNuKWahM2GhxoZW4rT9XyG3hnJxFnubs4N2rpz8aKD/qi+9RNHQ/LqxpNciDCy7gN4BpFL1LAZx5oo2UqFy8Flb4yiAgBnQotxdjI0YLP4Pa9x/duojwf+hjEX5h0HW4W9bPPyj287P+5rh82ZlI9aDu1tK7eQt2A2dnWoe6g+FdPO4v9FafBaa8QdSVIc/AaK/MNI30oEBDVdVH1VXsZbdkYbDnvuzMW7s7WWduOy0eqIMMjhuKWahM2G+iBlsxXf96Nv4NLi4ov7mLO/a13Lyo/7+877axhNfqe8FL1ZFfQG9A4ilbKucRS+94qmNolDRed7WKAogYAa0KOckRd8OrGx42Dkj53dj/o1PYmfksu/qoaYAAmZAi3JOxuTxOaals6XGNOZCXhfy+L4ogIAZ0KKckxHpzz2r0OZ8nC3D51XWn3ee+UyPPL4vCiBgBrQo52REHj+d3w2vOXLPc90fT3Wfz5gZ8vi+KICAGdCinJM5Po4Y58+Ply6Vf+p+a3BmyOP7ogACZkCLEsAoCiBgBrQoAYyiAAJmQIsSwCgKIGAGtCgBjKIAAmZAixLAKAogYAa0KAGMogACZkCLEsAoCiBgBrQoAYyiAAJmQIsSwCgKIGAGtCgBjKIAAmZAixLAKAogAAAAAAAAAAAAAAAAAAAAAAAAAAAAAAAAAAAAAAAAAAAAAAAAAAAAAAAAAAAAAAAAAAAAAAAAAAAAAAAAAAAAAAAAAAAAAAAAAMDMXAC4DEUQMD2tSQDjKIKA6WlNAhhHEQRMT2sSwDiKIGB6WpMAxlEEAdPTmgQwjiIImJ7WJIBxFEHA9LQmAYyjCAKmpzUJYBxFEDA9rUkA4yiCgOlpTQIYRxEETE9rEsA4iiBgelqTAMZRBAHT05oEMI4iCJie1iSAcRRBwPS0Jq9m/WHziTads+W7r7TpVaf355INX9t4xtttKK99wCfvNU35GnqXHYfqvf55P23e/qs2C3sZiSIImJ7W5NVUYWG7T7XpXVv8XrLhaxvPeLsN5XUP+LRpFu8tvtJe67LjUL3XP+/kcbwZtCY3O1mWidk8/2Bpwf4o3LPVYXFa3sxdW/xesuGrjWf9ePWZNoPOgRF2G8q1TWA/6+6BNkujx6GpUb3XfBmGPI43g9bkJi/fb5oqj1scBCFM6rA4v1vczF1b/F6y4auN52xZPXLoHBhht6Fc2wT2O7/b+bYdjB6Hpkb1XvNlGPI43gxakxs8sRvvOo+fv/PwjxYNR024ceuExWGxv+/4TdG5ueE6iHests35h83H2gzigaGk4VwqoexpwKOdLctnKpcfh6ZG9V7zZZhq2ne8kKEXq6IIAqanNTnsuGke/an7XMWzcPArvhMWx8Ud6r7j95LhuGO1S9sU/kPnNg7lugc8ZH95XFTvNV+GqaZ9xwsZerEqiiBgelqTw44fvnA/Hvf/oH3c+IjvhEWZCfYdv5cMxx2rXdqm8B86t3Eo1z3gIeTx/heroggCpqc1udmGPO5XvAuL9RfLprn/Ihwvn7C2UfP8g8YKPfPb69+6nYPwVqkVeeqew3/it9ZH1pZ9//BnvnjPSj3x2579gODZHX/qN5bNmsyKeRuqleOStt/1h4uvwtX5ArqaYsR2oO7PpCbKc76zg0ff+iK9U+ONHbA15j4uGKeq6kVjjSfqqlnp2G98AceNQyvC9/kgXl75pXzl1YaTTU+a6jjuzjLoLJ980Vhx93q9KDLyhgvZtHAGKYKA6WlNbjaUxy1dx+fjD92boSaUixEbxD372ixWVsjtWV3bsVC6p+8Ev7TtEPp+y87qVr85sBBumztxlQ5Wq0f+pPr1ZYsms2LecDXfRxqXZP1aHv+9rs4VsDP60o7YDtT95U3k59aPQ1PNwk2VGvNlqyGMHLBdvgbpXpJOLxprf9Wi9OnKZczV6t90ctw40lLxG1bAnSq/lK+8y5t+rwnTkzdpO+0cl8ugf/nYMT+wOBWrPI8PX8jGhTNIEQRMT2tys4E8/lKPx0Pwffrq4uVdxdHFoc8mYqd9/B2Gsyc+25+/YxV804rYZvHkYv1tautk6ZuwOyq7ZVofpQA2+Y/Hedmyyc6Px0PVynFJ1m8srquz3c6Ih/pLQ2/PHTaNu+17vvRHYt2+IYwbsD9q96sv33fnOr1orP1Vy9I2gb5MMmYcVsSfCjfmurzyS/ky2Rd3l/1EfRRN+v78uPO59HqWTzkwa/S5pWqNPBi6kC0LZ4AiCJie1uRmtsDzhOEcr9xtS/yx9MMQfSkSLJCyH0sVvyk9FEk+7LjACl2ktsJP6Md5WcnDMS8bqf06HIeq9Y4r6zcVD1dnuzF1pBH3hn8+9HQuzVDRWP/UjBqwa9CPZ/3RVz29aKy9VavSbSEZOXG+cLgwXV75JQq19Ja4nXMjLJu0gxp33zLwQiNWsBxY6MgOa+TB0IVEuo76hRygCAKmpzW5mcVFCKeW3cI56fFkCFDbCPFWfGBFp9OxIk7C0dRCu3XqQ83+rR7lluGYl43UUR2OQ9V6x5X1m4rbRkgubjcdTVvd/tqhp3Nt4vDf6lS3f2pGDThreagX01u1Kr0xj28dx/ldXya0oQrllyhUVyN2zi2xssm2Qj6XhVAhFYwD03iKCcp2q/KReq9qDVEEAdPTmtysJ4873x3pB/E23uJ9eIpHR6ct9a+8WOv5T/1OEYjtVsoEzb0qhLvhGDNP3mQnHIeq1ePysn5T8SIptkfjVt1f1kR7Lk6Qko3q9g5h3ICzlod6Mb1Vq9JpNqPLjKPIr+UX28heJltb7rmKPvlUNtmO27bqZdC7fOLAdEHVSzJ0IWVjda0hiiBgelqTmw3kcbfi44+1ireYvwfyePSuxclJeGMqfDCgbaEOMf+xAvcsszUYjkWTnXAcqlaNS9p+27H5q9JuezRudcI/G3o61z6CqPJ4lA1h3IDblod6Mb1Vq9JxNpNx4/C3uFbSrRhVKL9UL5O14t9j9KfKJlN/VrdeBv3LJw7Mt9x5SYYuZMvCGaAIAqanNbnZYB63eCjCKEVQe4tndLo4ZsHSPAwfcytbqEPMuPer2hw1HI5lk51wHKpWjiujftux+ZLabY/Grb7wj0NP59rOyjzeN4RxA86P9vdieqtWpbOZD8aNwz9YURVVKL+UL9Npc+8nlkD12cWyyXbcTrEMBpZPNbDqJRm6kC0LZ4AiCJie1uRmO+dx2wiRlt8cxtMhSUQx1nbI465Qnlm25ZWRebwcV8H3m4rbRpvW09G01R/+YejpXNuZH63q9g9h3IDzo/29mN6qVeli5p2RE+emX6+/KpRfypfpsFhaZZPtuINsGZSNDA2sekmGLqRsrK41RBEETE9rcrPBPG4nXLxaWIQAsxsbX7AMQO2VrcRMH2KorVCFWFBmlvTmVFW2bLItJkPVBq9OBax4qBiuTrVTI2mr7i8IfaRz1kbs222obv8Qxg04zf3R04Fewn63alVavbRGTpyd/A/9HpgqlF+Kl8mOPfA5NCibTP1JNrCB5RNKxKk4f7/O4/0XsmXhDFAEAdPTmtwsi64j/7sSx/d+5X4Ofb4MK97Coll89ip9ANn9bN0Tjof60MF3R0/ivZX7DZRNeXz9kX9C/XkRjz7drL+uy1ZNtsVkqFo5riDv14rnV6faqZG0VfVXDD3vu/nYjp+Ub9D1DGHcgH2h8Plxm/qBXkxf1ap07CUZNw7fXGgoVii/lC9T+PXJxer+M1+jaDL1110GA8snDMx2/efHl9Xnx4cuZMvCGaAIAqanNTnM7m1ESSwsfHHh4o4unoZ3itxJU2aCGDX+t+xW+mU99zt07jf0VmUgViFme82Bq5F9W/AHfciVZasm22IyVK0cV+DKxn5t+0fZ1al2aiRtuTpZf243Db09F3/VMP0ioq/bM4SsUiy1YcDG0o/nPgva34vprVqWjr0kI8fhV0c4oArll+qV/5klcfc+Z5i5osnUn21Uy2Bg+WhgmorFb+4Wedw103chWxbOAEUQMD2tyWEpZYdbm3A/fvHyF7bsm4NP3V25W/iLr17a3cwi/nkLPWiUFDXr8Gc83N+8tR339zDuPwv/50QqUoeY/7saqV1xd06LzzplyybbYtFQtXJcQdavK+6rhlGodmqk3ar6K4benlufuIS0ehKGmOp2h9BWSqU2DNj4y48fluztxfR3lJdOvSQjx2FpUQ2oQvmlfJnii2U3z+Fk1mQ77u4y6F8+cWBuNTYPX5yXeXzwQrYsnH6KIGB6WpN7Fh843gptNsHetf/lyI1bM4ogYHpak/tV/X9ANxx5/BqdLXXHfPNmWREETE9rcr/iz6e3A3n8Gp0tw+dV1p/HZzE3hiIImJ7W5F5Z4svflrzpyOPX6cg9DXd/Kje8ZX6DKIKA6WlN7tXZ8jbdjpPHr9efHy9dKtdb5jeIIgiYntYkgHEUQcD0tCYBjKMIAqanNQlgHEUQMD2tSQDjKIKA6WlNAhhHEQRMT2sSwDiKIGB6WpMAxlEEAdPTmgQwjiIImJ7WJIBxFEHA9LQmAYyjCAKmpzUJYBxFEDA9rcn529NfOdlDM3v+eytDzZ28t8P/SRPM9y/AzHdkV6cIAqanNTl/e8oIe2hmz7lpoLnTplm8t+Ofcp1vtpzvyK5OEQRMT2ty/nbJCOvHq23/G9ceEsuec1N/c3Z09/8eZ88j2qP5juzqFEHA9LQm52+XjHCm//B9gz0klj3npv7mzu+O+Bvu882W8x3Z1SmCgOlpTc7fLhnh/MPmY21WTsP/Er2XxLLn3NTfXPq/jtPIN5hdttzndM+WIgiYntbk/F0tI5DHXyvyOPA6aU3O39UyAnn8tSKPA6+T1uT8uYyw/mLZNA9f6MjzD5qmuf9Me07MGusv3muag/b/ezy2gs67r3ZqxvFHDx75/2zM6jxdH6U6oZfjLFXl70huqGh6OgvNOe3JOOCn2ci9mN5TJZ8x3V7PRWkUydp9lDFMy/q3oYBvtjtML5vFvHjnwjvXtOt0x34Xrl03tvtF/3OnCAKmpzU5fxb0D9/36SFlsmaxst3sfs9ljfClObC0kM6crCyTHKxWj3Zrxo4+9kXslHuz0cr80hpwu65O6OVsqTci04azsWJ/Z6G58uSp+4+HbcD/lo3cO78bCqd3dA9dLrWq5UUVo4jOQxFXwZqxvqzpey4l18MM3Hg0i0Xx6sLzYcuu0932++7Xdtzk/c+eIgiYntbk/PkM8Omri5NluAs8DEF/YjetbtezMi4/2D2q3ditj9rMUvygv7UZd7Rx94jPl75aVSf0Yv+GTJruT52NFfs7C83VJ4eeqxyGXu2W158PH2vp9pOPIrIO7Ob65ftW8fwdK+0zsfJpUT3IZrEobqVDqXDhvde023T7k08u1p+7FG4DLvufPUUQMD2tyfmzoA+ZLaSPlOf8DalYGZeXjrvpIE8sW5uJ+S3LXHkd9XIaDmov2FyxvzM1UJ0cyuOhV6sTbmnD2U4/xSjEdnymXX8UGnZCX1V16ZnFUFylwrj7r2m36Y4n7WsYZ9H/7CmCgOlpTc5fSBsmZLLj+Mg4z3MqYyXqx915YtnaTJZP/O1vVUe7esSRUpOzuWJ/ZypUnRzK46HX87uLn/jyKRGX/RSjkL4kGTqtqovt1LMYihcX3n9NaWfjDKSTcZjVtc6cIgiYntbk/KWgD/njsGlWXv7sQGXsS3OvzEHdxLKhmSz9+eRX1Ym7oVRKTc7miv2dqVB1MtQwdW7zXZw27564xBgeq3T7KUYh7VFn/fynvi93rKoudrSdxby4WgoX3n9Nu013OhnnkDwOXIrW5Px1M0L0bor9WMZ/QsI9lk02JJaobcaOxmcEm/K431Mmlc0V+ztToepkqGHq3OZvbA+bT/xdsU52+ilGIe1RcxLeX7S+bJKq6lE2i0XxMASr5C68/5p2m+50kjwOXInW5Px1MkII/UIqc3Hx/H3/wYxoOLH0NJMd3ZTH7euDKvVsrtjfmQpVJ0MNU+c2l7/P79pJV0G5ebCfMo+3HZw2zUP3mcSQQKvqGc1iWTw8WNG4+q9pt+lOJ8njwJVoTc5flRHyDJWkMs5x+bC3P7H0NpMd9YmnqpOln7f/WtzlbqnY35kKVSdDDdPJbdbyiTtmd8X/oR8GBvvJ82beQTy+LY+7EnaoLB6+6sL7r2m36U4nyePAlWhNzl+VEeKnLwqpjFMkpfA2m9mlGSudCrmNqk7atfvS35V/zmpzxf7OVKg6mUafRh7ZgZ+4HGq9/0jnqn6qUYgd9R2sj55aYg7ffUKCrqoX/KGyuD8Yv4X0X9Nu051OkseBK9GanL862Rzq4xTfHbW/txnKrD9yz3TXn+dJwWe09de7NeMKNR9bGye97wOmXausJ8bR5oqDnflC5UnVyEYeWf4OGbntvTvAfBRiR8Pnx61y+FnF/bpQ3zC9fBbL4r5CuvDea9ptutNJ8jhwJVqT81dnBP/biavyFwlDGZdlDtyJ8tYvpJ5dmtFRJ/6+Y14n7bpb3KLalor9ncVC5UnVyEaeWP726a7tvbcfx48isuTqPXrlvxe439Vc+Ybr6p7rN85iWdy437wPVQavyWyb7nSSPA5cidbk/HWSzTr8DZGHf/RHPZXxfxhkUf2xELuZXHy2WzNmfeJyzeqJTy9VnbTrttrEF2yqaAd6OkuFipOxhh3WyBPL3w9c85Zd3W9cmm4/+SgS/zdUwkcJ/eb9Z6fDebyYxaK4sa5Tyd4J3Gm600nyOHAlWpO4lPx9RLxhFEHA9LQmcRl2W9rzJh/eDIogYHpak7iM/g/d4c2gCAKmpzWJS1iP+b+QcdsogoDpaU3iEs6Wxd/3xptFEQRMT2sSwDiKIGB6WpMAxlEEAdPTmgQwjiIImJ7WJIBxFEHA9LQmAYyjCAKmpzUJYBxFEDA9rUkA4yiCgOlpTQIYRxEETE9rEsA4iiBgelqTAMZRBAEAAAAAAAAAAAAAAAAAAAAAAAAAAAAAAAAAAAAAAAAAAAAAAAAAAAAAAAAAAAAAAAAAAAAAAAAAAAAAAAAAANxuFwAuQxEETE9rEsA4iiBgelqTAMZRBAHT05oEMI4iCJie1iSAcRRBwPS0JgGMowgCpqc1CWAcRRAwPa1JAOMogoDpaU0CGEcRBExPaxLAOIogYHpakwDGUQQB09OaBDCOIgiYntYkgHEUQcD0tCYBjKMIAqanNQlgHEUQMD2tSQDjKIKA6WlNXsb6w+YTbTpny3dfaXOE0+btv2pz/6oRzt3AXJy81zSXmVpnXjOw/xd7/9dXtzg8ZkUQMD2tycuoVrztPtXmCOTxVv9cnDbN4r3FV9obaV4zQB4HroXWZJ+TZScxP/9gaVnlUbg57K74S9w1vs48vn68+kybs9Q7F3YND7R5CVfMc50Zu9oUkseBa6E12fXy/aap8rgt8SCs7HrFn9+9xF3j68zjZ8tLP594LXrn4vzuZX7Mia6Y5zozdrUpJI8D10JrsuOJ3XjXefz8nYd/tIV+1IQ7xE4MHV4ipq4e2htaqEZ4/mHzsTZfq12vsbfc2XL7d8dOxXTginmuM2PxwK6XVLpcrR77ur4e5HHcQFqTteOmefSn7nMVz1a6X9qdGDq+xL3a1UN7Qwv7j/JL2fUae8tNmscH7XpJpcvV6nGN11e3ODxmRRAwPa3J2vHDF+5n6P6f6I8bn1o6MbRLyqldPbQ3tEAeJ4+PRR7HDaQ12WdDHvdL26349RfLprn/IhyvH+U+/8A/TY+fmvO7B4++9ecuVLMKk7yKtf/UPaX/5GL921DVN+MOr4+ssn2r8T84eK6L9RfvWaknrlCQRuiLxhCNDfj3a92H+uL4vfWHi6/C2J7pSDbumFTVUhvlvkyo4ZoPww7yEdaTIPVctK3Fym5esz6KGSk7KA9UM2DyVqJ24qqrz2ZMr4Q/0OmxHJAv375E7kB1gV72cpWXo0LWin9+1xnxuOvb/JrppXAjzq/QHeobc04RBExPa7LPUB63dB2fjz90b4aaUC6FQGDhtlhZLDSrR7a3fhyKNgtf+Fw1V0WYFFWsuV+67QfWYTh8zxWNh+2YxeeJO36wUvnmwFJDO4Z2hD6UNb62gXe/Du/c5ne8lsl+r7H5hopx20j8wfR236GfCtfzYmVl8ubjp0yyEdaTINVc5K2drlyuW63+reyjmJG8A6+ck3wGylYid1ATV129ndEXXVI40OmxHFAqH3vtfbGzXovaadmFDVesGvG46xt6zYqXIo44XuHAmAuKIGB6WpN9BvL4Sz0eDzHz6auLl3djIgwRIlbd3Ws9UenDpnG3W8+XYf+wWdjZ5xYsWZiUVXz7Ty7W356/Y734sy7CYrcny9BbumGyDbspWx+1IVwVVYjGdj93YWpjig0FsU68qnLchyEXuO837qTlCDdFdjFu78R/Q4vNt7fc7S1dNQlSzUXRml11mNziaDkjWQeSDlQzULUt2cRVV2+7+Yx9Gw90etz8ElUXGGS9FrWtcng5wo350Ih3v76h1yx/KbpX2DvmgiIImJ7WZB8Lqyx0vOOVuxXSz7C24n1gpHQSIybQu55WyrWSyoSNuGtnszApq9iXcgDp5jd0qx/AU0wfK/5bVVHbdZ3Go659P4j0k7yT6pQD1capP+lq+sOh7/QI2w/QnSznLY2wakzijlXsthZ3q6OindRBlOe5UC9cY38r2cRVV2+7bmjtJelAt0cJ7XZ6LS5Qui+XauvlCF31j3jU9Q28ZmFM7YWWV9g/5oIiCJie1mQfW8plPnLh4bkbmbTi/UaImuIDK2VSbnOlT/Zpt0gInTwe2o/C6XQ4xGfbgu2Xj33rotpNR+O3nWIM6axt2FVV4w4/pJ/fXfzE142JJ7QTGkoNJKn9qjGp5qJsLaam6qjoaHHMSQfSYMIM9LeSTVx19dptLyludXqU0EEqH3tV4aFeo1BbD0LChQ+NWDudnnpKD7xmsYB/KTpX2D/mgiIImJ7WZJ+ePO58d6SnAu3aj1kphZFj1d1DEn24pU1cPkLSbhEmZZW2/Yv185+u3I8CrlI6rAyXx3Rzr0gNVVHtpqNxuMUY0tkwxmrcYf+0effEjbH9Ed1G5wdoRdoGotR+3VhQzUXZWrzK6mgxI+UFOPmc5DNQtxJYoThx1dVrtz0atzo9bnqJqgsUK9S+XMXlhPLh1ekf8bjr8+11XjONKbwUnSvsH3NBEQRMT2uyz0Aed0vb39K0az8mxCKPu6Dyb175Qu0PuhvyeFmlbf/EvQXluEpV6GYt+E8YuKelUVVUu+noljzuT1fjtrLW0mHzib/JU0UbdfTuljxeNhZUc1G2Fq+yOlrMSHkBTjpQzUDVStROXHX12m2Pxq1Oj5teooEXO3u56suxWtaGvkdG2YjHXV//a1a8FJ0rJI/jJtGa7DOYx22pF9GaFn1a/M5pc+8nFk/6CFh7akMeL6uk9u37xkP3rmHIu+mwMlzRgntfKgZop6h209EtedyPsRq3/yHd/wECd0LJoC3jtA1Eqf26sSAdDeXK1uJVlkfLGSkvwEkHqhmo2s5o4qqr1257NG7VPW58iaoLzKjX6nLKfNs34nHXt/k1I4/j5tOa7LNzHreNkDvbmxxzWNRuE5ePkLRbhElZJbUfY2qHPO4K+aNeVVS76ejmPG4bdjXVuP2XE3fMbvL+Q5+Xz5Ny1kCS2u805lVzUbYWr7I8Ws5IPQXZgTSY0EzVdsFPXHX12m0vKW7VPW58iaoLLPheq8vxX7WW+kc88vo2vma+884VbhqzKIKA6WlN9hnM43bCxZiteBc7bqmHgm0wGNt54IMysDIx4NxGrHL+fhYmVZXUXPz2EMI9HVaG8z81t3TUq4pqNx0dyuP5VVXj9t39xI3HbvJ+pJLlRKXmkzTCTmNeNRdlaxp6dbSckbaDKB2oZqBqu+BLVFev6u0lxa26x40vUXWBBV+iuhx3MObb/hGPvD4rXr9m1UvRucJNYxZFEDA9rck+WVAc+d/QOL73K/fT7/NliAVb8c3is1ftp6EtTLIoCr91t1jdf+Zi0xX+2DZO0jth/uO5y+LjuZ0qIbbCLbb7xY2eJBECcf31xfoj/4D386zBqqh2s3ZD2qjzeH5Vbjcbt7/IEOLuWWw4ZJvhoxffHdk1peaTOMJuY54dLeaiaC1eZXm0nJG2gyjvsZissu0gnzg3wvLqixlLW3WPG18i2+2+2Hmv1eW4Cv1zG426vt7XzHVRrsfyCu1LzwItKIKA6WlN1ux2RBTOLkpCmjVuhbuji6fh/SkfQimWZP0zy8juTcsQOfH348Jv/LlIdBa/uZuFSVklxZYLQ/ebf6vysLqzfV/BfT1wv8rXfi+pimo3HR3K4z/Kr6oat88FvribotBOKLPSrxGm5hM7Ylxfnca8ai6K1tKkFkfLGck6kHQgDUbNlG0HrnCcONvOr17VUytpy9XJe9z8EvW92K6F2Gt1OWGlqce+Ebfd1z31lh5+zRz/UqR20lbvAi0ogoDpaU3WUsoO6z/cj1+8/IUFW3Pwqbsrdyt+8dVLu4daxL9tEfNiEP9bCbul8YGxPnHhtXqiIq5m8/DFeR4mZZUsttzf6rj/LJyuQ9ffxy0+s6/u73WkwThVUe2mo0N5/BPfYvrbIOW4XS7wT38s+bhfSPTW4W91uD/r2zbfiiPsNhZUc5G3lq6yPFrMSN6BpDkpZ6BqRbKJq65e1dtLSlt1j5tfor4XO3+5qstxc6urtnM9Ix53fQOvWf5S9Fxh35gLiiBgelqTexEfc3rt/ypRHN7kElX2r43oN9GbffXjKIKA6WlN7kObhp2zpe5jdk8Nl6iyf+RxbWILRRAwPa3JfUg/FXtny/Cj7Prz9kfkLS5RZf/I49rEFoogYHpak3tgKaB9h9EcueeU7s+uhndFd3GJKntHHtcmtlAEAdPTmtyDs2V+O27+/Ni95R/fFd3JJarsG3lcm9hCEQRMT2sSwDiKIGB6WpMAxlEEAdPTmgQwjiIImJ7WJIBxFEHA9LQmAYyjCAKmpzUJYBxFEDA9rUkA4yiCgOlpTQIYRxEETE9rEsA4iiBgelqTAMZRBAEAAAAAAAAAAAAAAAAAAAAAAAAAAAAAAAAAAAAAAAAAAAAAAAAAAAAAAAAAAAAAAAAAAAAAAAAAAAAAAAAAAAAAAAAAAAAAAAAA5uMCwCUogIAZ0KIEMIoCCJgBLUoAoyiAgBnQogQwigIImAEtSgCjKICAGdCiBDCKAgiYAS1KAKMogIAZ0KIEMIoCCJgBLUoAoyiAgBnQogQwigIImAEtSgCjKICAGdCiBDCKAgiYAS1KAKMogIAZ0KIEMIoCCJgBLUoAoyiAgBnQogQwigIImAEtyttr/WHziTads+W7r7SJLaqpu7J9tzctBRAwA1qUt1eVPGz3qTaxBXl8EwUQMANalDfXybKTmJ9/sGyaxaNw310nj9Nm0w35SeOtPr3+m/b149Vn2ry0fbQxjDy+iQIImAEtypvq5fuWdcs8btkiePuv2i2Sx/ndxVfa7HGsus2mQvtxttz4HWUn+2hjGHl8EwUQMANalDfUE7vxrvP4+TsP/2g546hpHrjdTvI43JRMjn1eXNtNfvguMOR0y/kdnH/YfKzNaHSrPW2MNtzpnvJu6oA8DlwPLcqbye6eH/2p+1zFs6Th00cneYRUPSCePG02p5w95PEe19PqFuTxy1EAATOgRXkzHT984R4t9L9xeRyejXSSx9lywzOTmMfP74a7+SHk8d2Rx4FrpkV5c23I4z59uOSx/mLZNPdfhOOWovsrODGPWy3L4/bvU/cE3mef5x80TXPw6FtfKvDPYH4bjuse35dyQjtZJd/a+shGYt99wq5vd/3Fe1bkSdlqULTdDqbYsjZ0pb6I/+7je73/LByLzbfyZns6TRU0wvVR8/aLTh/B+iS1Xk5E31WpPZMP8KZSAAEzoEV5cw3l8XhHbcnjoXsz1IRybTbpkd2PWyEr+kv3BN6l9MehjWZhrZys7OjBavXIF2wWbveeT3OWtfxe486VlVJrehNV47AvzYHlvE/yVoOy7XYwxZa1kaYgbLgWFys7XzafFM12Os0qhNYvDt3wqz7kXDNrE9QZbPeq1J4/mQZ4YymAgBnQory5BvL4Sz0eD0nj01cXL+/Gz6AchgTfK+Zxy8cxIz65WNvt9GHTuDvN53oDND0rOH/Hf0TRRuGSkn1x96ZPdLasFEdysvQDUFazluz2fH2k7dBqULbdDqbYslP2b7iicNNseddd6Im/hLx5KZutO80qhNaP/Hch244zkxW3rux6X75vHZat9l5VaK8a4I2lAAJmQIvy5rLEUWeD45W7BwxPL1zyCPk75i1LI+1DhFrI4/HDLlZXjafKbZ7Kk59r1FXQtwGr56pVldJIQipUVjvOvqt0Wg1C2+1giq3Qhq8X9tLzf18tb76i72dVp1kF357eZrBi/qt6DOy6/DjWH4UenTgRbbd1Hi8HeGMpgIAZ0KK8uWIuydhtsJMeK4fEYxshbcR77j7xaW7Kx0pa7V1o+C7Qybih0TKPV5VSayElatd20nPigTyuby5pMJ2t8BRICTJdnm8tb76iglWnWQXXekzjZR9S3JtLaLX3qjTacoA3lgIImAEtypurJ4873x3pCUib9OJ9eMojPUIeX8T3CDt1Y+7KUtD6+U9X7gcAV8AG456rKPlVlVJrIRdq174095TzOoktb7sdTHcr9BQuzL6LWR1fLXSamk/yZutOswpus332kfch7QU61WC7V6XRlgO8sRRAwAxoUd5cA3ncpQ9//63kYWIK2pzHi8yU6raPAOo8frL0qV938Jaj/Jt9yq5FpdRakccv/Idp3HPzbh4v2m4H093yd/i242ZCP40471prWfNROeS607aCNfhPd9OE+FHbXXk228WDkbLVvqvSaKsB3lQKIGAGtChvrsE8blmjTH/x7rG8iywN5/F4vMrj9t3iYfgooitw2tz7iaUn3c5XlVJrZR43z98P33OqlFq23ZbvbvmHHqrdvbzYvJTN1p06quBat+lVVdt7UBXOu6paNZ2r0mg3zf8NogACZkCL8ubaOY/7PORsenttKI+H7O2ELJRyU0xKoeJhMZaqUmqtk8ddUXeoSqll2235ni1XRNfV9tpKT7mdstm608BX8K1bflZnruFy7vKuqla96qo02r4B3kAKIGAGtChvrsE8rjtJSx4hh1lC8gXbLNgjz0J50ZTNrFW34R9kODGxxUz9IKteVUqt9eTxcCi1GhRtZ+V7tqz+f+iRR9+EhOalbLbuNPAVQuvhI5jGbvp/V/4OVZrSo6d1q151VRrt4Ct2syiAgBnQory5sqxw5H8H5fjer9zP98+XIX1Y8mgWn71Kn/yuHvGqUjSUx10rH9uZE7056DPz+mtXwfXifuHHHdfbpKv7z1yhqlJqLaS3sLv+yD+J/twPLrUalG0Xg6m3bEMPpl0mDZ8V+e7oSdm8lM1WneYVNML4jdAaTn0E7pT//LjNaNFq/1XF0eYDvLkUQMAMaFHeTHY/KC5fKOGkjw66FOOOLp6Gd+CUjYp70yxLeUN5PP3morK+nTFW1r4r+F9cXPmK659ZEnfvc4ZmykqptSKPW0MH7ncb3feW1GpQtZ0G07flrlqbvtdV+H3Jonkpm606zSuodSsfvgu46VYfYinae1RNRNFt6kDtFQO8uRRAwAxoUd5MKWWHRKNb65e/sHTSHHzq7spdFll89dLuEhf6vaAqVe94P27bJy7xrJ7EfOeadP+Hg/+LKfefhf+eIv4nFXbz7ysWlVJreR4Pf4gkDi61GhRtt4Pp27I0mr4frcNfdXF/vrdsXopmbbfoNKsQW/c31GE//57n+KbCBwzLwfZdVRptPsAbSwEEzIAW5RukfKtur9r/o+IaO5lQ/uz7jacAAmZAi/LNsfn/A7qas2V4AJHdJ98mds+fv7PwhlMAATOgRfnmiE8TrsPZMnxeZf155wHEbXBLPjC4JwogYAa0KN8Ydqd8jfeUR+6x78o9Gr7Jn8QYYFN3Gx8WXZYCCJgBLco3xtnyWh/x/vnx0qVyvcd6u5wt/Z9RR6AAAmZAixLAKAogYAa0KAGMogACZkCLEsAoCiBgBrQoAYyiAAJmQIsSwCgKIGAGtCgBjKIAAmZAixLAKAogYAa0KAGMogACZkCLEsAoCiBgBrQoAYyiAAIAAAAAAAAAAAAAAAAAAAAAAAAAAAAAAAAAAAAAAAAAAAAAAAAAAAAAAAAAAAAAAAAAAAAAAAAAAAAAAAAAAAAAAAAAAAAAAAAAAAAAAAAAAAAAAACu5ALAZSiCgOlpTQIYRxEETE9rEsA4iiBgelqTAMZRBAHT05oEMI4iCJie1iSAcRRBwPS0JgGMowgCpqc1CWAcRRAwPa1JAOMogoDpaU0CGEcRBExPaxLAOIogYHpakwDGUQQB09OaBDCOIgiYntYkgHEUQcD0tCYBjKMIAqanNblX6w+bT7TpnC3ffaXNm+O0efuv2sydvNc0+7iaaoqul13LC21uUo9pYAr2ZETr2ydrxHTub+YVQcD0tCb3qgoV232qzZujP82cNs3ivcVX2ruC/WWTHRw3Ow25HhN5fDNFEDA9rclRTpadxPz8g6WluEfhTrWbEGZyQ75+vPpMm9v0phm7sAfavKIrZpPOhWy8sivl8RFzNgp5HNgbrckRXr7fNFUet9gIQmjWoXJ+dx+3sHtwttz5O0pvmjm/u6+fLK6YTToXsunKrK+dvvvUYwpTMGLORiGPA3ujNbm7J3bjXefx83ce/tEi5KgJCaMTKof7CJ0RgT/k/MPmY21GQ632Hj9bbv+GtHGY6eQVs0nnQuKBvt43jihTjynU65mzvdh1VGb7ZG0vsa+ZzyiCgOlpTe7suGke/an7XMWzEPHB0gmV433c0o0I/BGGWu09Pps8Pqin9/WHO/40VI9p45Vc2YjWt0/W9hLXMPOKIGB6WpM7O374wv2o3f94QQ9iO6GyS/7b6nrSylCrvcdvZB4/3bWnekwbr+TKRrS+fbK2l7iGmVcEAdPTmhxlQx73weJCZf3Fsmnu6+Num54ru9vFUPhZ2G2euifwPtaef9A0zcGjb23Tfg7w3I39+rfhuO7xfSkn3PRnlXxr6yNr3L77hF3f7vqL96zIk7JV0cBT3Pvm/NhiYXcp7dFyOMUwYy9RdjJNURiYyVuM2ha6s+QupJ2scGBj71FxopqskOGKKUhH8xG2Hff1U7w+rmj2ErgK5QQ7qZPUZ9/LVg7XjrtPgWp6fIn1kf+EZXdIo2d+F4ogYHpak6MM5XFL1/H5+EP3ZqgJ5dpA7LIM9XsV9qH4YfNLCzLX0PpxONwsrJWTlR09WK0e+W6ahdu95xOBxajfa9y5slJqzXazHxTsS3Ngof5J3qqcayyr9C3JWrd9q3e6culhtfq34mg5nKzBtpeoPKkpCnf4RYtR1kJ3lvRFkxUObOxd8hOdyfKlyymIR129NELbaTuu+ylfn1g0Xmk1wUHspM3jPS9bNdzUklsqocShP2M79ZDGzvxOFEHA9LQmRxnI4y/1eDyExqevLl7eVaxYgA1+YqIq7HefXKztluuwadwt3fNlaDbdwJ2/Y8X9KFzo2Rd35/VEZ8tKsfGTpR+A7boq1pK7azvSdmhVLBVYc88t0v1x23VXcBK+I8XnKsXRcjhtg3kvUTpZDazqR7IWurPkmvVH/WTpwObevfxEZ7J86XIKsqPtCNuOe/opJ8QXLa80n+AgdqLxV3XaIRQLIrT08n0bVyhxFBJ876WHhk3PeLozvxNFEDA9rclRevL48crd8ehHVQsVHxspt1mwZE8uSlVhF2ah8VRZGykSo/DNQe+hWj1XraqUGg9PfGzXnT0OEexVrcb6VtIdTw/EQ1/arY6KdlKDeS9Rnk3ygfW3mLWQyqfrcsO0L5osHdjcu5ed6E6W262mIB3NR9h2PNhPvBYrWl5p0bqokzj+qo7OVsO1f/0Q1h8pj8ePyfcOadzM70QRBExPa3KUGEEZu1Vy0iPREHC2EYJjwwdWqsJpV3HmhO8CKRKj0GiZx6tKqbVTH7zatZ30NLRqNdUPx9O4w66CvjoqOpqO5b1E6WQ1sP4WsxZSedtoZykdTVsbe/eyE/2TVU1BOpqPsO14sJ9YJRWNV1q0LlmhrM9YJw0h1vDDbXdDifTbTr1DSt11xtM38ztRBAHT05ocpSePO98d6QfeFCrKwFm0dFWFu3VjAGeBtn7+05X7AcAVsMG45yqK4qpSai1kYO3al+aeQr0K31Q/HLdvT9aR78vtKo9XR4vhtA3mvUT5yXxgdYtB1kIqH0ao3fZo3NrYu5ed6J+sagrS0XyEsbuBfvIJSUXjlRatSypU9Fm9bNVw211fwmhRup3OkMbN/E4UQcD0tCZHGcjjLlj8/XcKFQu4EGs75XFfqN1tf9Ct8/hJeA9MHzOxSPTvqvlqVaUqaOOu/7yCe0hapZMsV4Tj1nb0ru2GVuqj5XDaBrNeog3ZJHItRm0L/bPUHo1bG3sP2hP9kzWYxyMbYdtxXz/FhKSi8UqL1iUVKvqsXrZquPmDECvxT3djy72XPnLmd6EIAqanNTnKYB63GClCN0Vtfu9UqQp363byuH23eBg+iugKnDb3fmJBqM+NVZWqoG0b92+0uTxQpJOsfjhejTu0Uh0th1M2GHuJhrNJ0U9GLfTPUns0bm3sPdGJttdd8ng+wrZjp+qnnJBUtLrSYqSpUNFn9bJVw81H5ErYqmwH0bn08TO/lSIImJ7W5Cg753HbCMGU3ztVqsJpNwSrF2ItRWIMvZAnDouxVJVSa0VCCMKTmCKdZPXD8bY5L7RSHS2H023QV5GhbFL1U/AtpPK20c5Sez1xa2PvGX+if7KqKaiPem3HQdFPOSGpaHWlxUhToaLP6mWrhpuPyJew7x/ZoKpLv8zMb6EIAqanNTnKYB7XLZGFSoghiyxfMMVOj6pwWzSFpbXqNsL7UiZ+U4jJ54HPGkFVKbVWJIQgHEqtBnHE5+/7+K6uNFSpjhbD6TSoKpJOVgOr+in4ElY+1Cxmqb2euLWx94w/0T9Z1RToaDnCtuOg6KeckFQ0lKlaFyvkJ8++Zn3GOtqthhtbWh89VYljHfGqS7/MzG+hCAKmpzU5Srb2j/wvexzf+5X7Qfr5MgSLhUqz+OxV+qBv/fucoZJUhVOY+RMfW3Cf6A1EH73rr+OdlvulEHc8/KreYnX/mRJBXim1lieE9Uf+ifPnvr/UamAl/Mebl+3nx/0Dm++O3JupMTcUR8vhpAaLXqLUWzWwqp8gb8FdV3eWUitpa2PvTt1od7LsSz4FseVihPFgbz/lhKSi6SUoJljsVbSRuKcheZ9tHQ2sGm74/LitrVDCHbFveb2XPmrmd6MIAqanNbkzuwsSBZwLhvhrzz6w3NHF0/BWl4+UFDKiSmJ7P8oKpzDzt2xByPp2xlgEu98XdL+vtwrh/DNL4u59Tr9XVUqt5QnBNXTgfoPPfW9JrYrFu7P4zV2fBnxzq/jrfvE6iqPlcFKDRS9R6s028oFV/QR5C7bdM0uplbTl6gz27hQn+iernIJ4tBhhPFg2J9XrE4vqSqsJFtdOe7SqE3fL4caW3IddVcJ6fvuvrqnupYcOdpz53SiCgOlpTe4spexwu6Nb65e/sLhtDj51d+UuZhZfvbTbsUX8ExZ6dBzV9+OfuHs3FU5hZtYnLrxWT1TXl3L/p4H/0xv3n4X/niL+JxV2h+crFpWqoNWu//sbcXCpVXEDbx6+OFeaWYc/6eH+Lm8K/epoMZy2waKXKJ2ssknZomQt9M9SaqXd2ti7U15872QVU9C2nI0w67inn2JCUtF4pdUEi/6cStVn8bLZRrUgXB3/CcNYItx19176qJnfiSIImJ7W5PXa8DZnG1eX0/4fFZs6ufGuOEu4BoogYHpak9dq4/8HdMUMdbbUbd3tznTk8flRBAHT05q8Vhv/f84r5/HweZX15/lD91uHPD4/iiBgelqT18lyUP1uW+aqGerIPdx0f1E2vMd6S5HH50cRBExPa/I6nS033I5fPUP9+fHSpXK9x3pLkcfnRxEETE9rEsA4iiBgelqTAMZRBAHT05oEMI4iCJie1iSAcRRBwPS0JgGMowgCpqc1CWAcRRAwPa1JAOMogoDpaU0CGEcRBExPaxLAOIogYHpakwDGUQQB09OaBDCOIgiYntYk9mzzH0Spz1b/PfIY/OWVqSiCgOlpTWLPyOO3niIImJ7WJPbsMnl8/XiV/QdzOyKPT0URBExPaxJ7dpk8fhb+I/hxyONTUQQB09OaxJ5dJo+ff9h8rANbpScx5PGpKIKA6WlNYs8uk8fHII9PThEETE9rEntGHr/1FEHA9LQmkVhifPry/SZkx+cfuP8z7lH8P+PyXVdufbRsFo9eXVycvNc091/4MoFLr+svlk3zMB6t6obk64vcfxGyso7GhlNVX9NJT8+P2wMDHd1/pj1ZuxEe6L8wrS+jvFxVXX+R1UCXIgiYntYkEktsv3T/4+cD23xsX52F/4+iy91YzrLp1x/6r/l/2G9nH1p2TEc7dX3ePA9FmlWVx9VwqGpJe7FyB1aP3K5z4vYPVu5ApyMby2Jlu+EbhcSO7KIGLsNdbl7V7RxYJi+aQUYRBExPaxKJz2ZPLtZ2t3rYNO5m+/kyPMQod2O5z11KtOMnS58lxZ/9tD3aqevz46H/X/6fW5It83he9WzZuJviJ2EMUf5cperI5/OTpvHfeyR09PJ9d67/MvzlZlWtA7vBXx+Rx4cogoDpaU0icYktpEDLoCGLhY1q18r5tOfK++PHeaaNZ3W0W9ftxqO2q5Tqdquqx+Fxih3NE3Oex8uOwp4l5ey7inXkK68/+qpnKOly86rHeX30UAQB09OaRKJsatrEfOhyabWbyvk9k1Krk86e+jTbXzcdrZ+Pl1W35fGe0lkBp+1+aCimrGrNVY/YUVIEAdPTmkTSJraYoJX7qt1ULua//jwe7nL766aj/Xk8VLXbZvdc5Vi33dLN47GjZuXpWVDQdj80FFNWtePNPTL5BoogYHpak0jyxBYfLSiPF7up3G55vK/uTnnc5Vf/Pmc4KBvyePRunsfbhyRDl1FX9R+CcU/e0U8RBExPaxJJntiKO9ehG9lrvh8/be79xFJr9UHC4TweO8rlR4cuo6eqewO2/QaAkiIImJ7WJJI2sfk85/kUV+2mcrvk8f666eimPH5YPBePhvJ421EuPzp0Gb1Vq6c5yCiCgOlpTSJpE9tpfJYRPtlR7aZyu+Tx/rp21Ofo8/d9VR0tq9reg+o22QnvapqqI2u/J+3HjtZHTweGEvY7VUOj6KMIAqanNYmkTWy21XxsOfQk/B3C7m4ot0se769rX/znx5f158fzquF3Nxer+898L+KT8PrrTmm7yQ6fM/nuyL07Kuro5fuWqW279zLKquuP3JPx9ed+YEfNvfbKIIogYHpak0iyxBZ/C1JprNxN5XbJ4wN1LRs7i9/cHc7j659ZEve/zxm6CaxQONLb0ar+hU515H8BaOAyyqqu/QO3abfotu2bRkERBExPaxJJltgu1icula2eKIEWu6ncTnl8oO5L9zvyD1+cb8jjp2re7trD4cD9dv3is05pOxD+esrDP/qjkf+DLfocYf9QTF7V/3mVRfijLdyP91EEAdPTmsRcnd+N98L5hwcxPUUQMD2tSczV2VJ3+fmNM2ZAEQRMT2sSc3W2DJ9XWX/OQ+p5UQQB09OaxGwduUfWK/ewOvsACqanCAKmpzWJ+frzY/dhk4NP/X/7gNlQBAHT05oEMI4iCJie1iSAcRRBwPS0JgGMowgCpqc1CWAcRRAwPa1JAOMogoDpaU0CGEcRBExPaxLAOIogYHpakwDGUQQB09OaBDCOIgiYntYkgHEUQQAAAAAAAAAAAAAAAAAAAAAAAAAAAAAAAAAAAAAAAAAAAAAAAAAAAAAAAAAAAAAAAAAAAAAAAAAAAAAAAAAAAAAAAAAAAAAAAAAAAAAAAAAAAAAAAAAA4M10AeASFEDADGhRAhhFAQTMgBYlgFEUQMAMaFECGEUBBMyAFiWAURRAwAxoUQIYRQEEzIAWJYBRFEDADGhRAhhFAQTMgBYlgFEUQMAMaFECGEUBBMyAFiWAURRAwAxoUQIYRQEEzIAWJYBRFEDADGhRAhhFAQTMgBYlgFEUQMAMaFECGEUBBMyAFuWNsv6w+USbztny3VfavE4n7zVNp6NqKK/FafP2X7XpVLt9rj7KnVsY3dUUM7gXCiBgBrQob5Qq9G33qTav0WnTLN5bfKW9aIosRB6fBQUQMANalLNysuwk5ucfLC2PPgq3w3Xon3bvk/fO+nygzdyuWWj9ePWZNoPOgd3d6jx+hXl5zRRAwAxoUc7Iy/ebpsrjFutByFh1rji/27lP3rvzu703/bumrbNl9b2mc2B3tzqPX2FeXjMFEDADWpTz8cRuvOs8fv7Owz9axB814Z64kysOr5qmtjtb9n6v2DVtnX/YfKzNIB7YIQvXbnUe70zUbCmAgBnQopyN46Z59KfucxXPQt6nrE6uOL7+e7gr5vFB5PErj20iCiBgBrQoZ+P44Qv3s3VvHrd87ZNpJ/QHkuw+kcd3a2F0V1cf20QUQMAMaFHOyoY87lOWC/31F8umuf8iHB94eO2oiq/kH8o8/6Cxis906On6yNqx7x2eP+eE2/u2qP2U4D1t005In1UWWn/xXtMcPHFbHy6+CmOMXblyrkf3/P8THYjtZj9O5E0UXblT/poHdjdcWeysmgpZ/9ZVPAhvIsea/j1l91HLMMeuhWzKQ4NGnZeD9gXjnObDysolVQW1bF/6hjEnCiBgBrQoZ2Uoj1u6js/HH7o3Q00op+Dvk9oKG1ayWaysopLFLy2BmHCvbVl1sXIHVo/C2VT0dOXyz2r1b21XfXncVTmwknbI8vjvNUZ1pS++xwc6cOK6s3Zdf0HRhK+TkuW52lv17rqKQ1cWWqqmIrJZDZd9T82o5rtfW4smtpBPeWjQpFnIBq2CYU7dqXxYsVxSVbBdlewbxpwogIAZ0KKclYE8/lKPx0Nu+PTVxcu7MboPixvMnJUNp8Ld6GGoceLTUWznZOnLWLfuTvGJeimK2snQlfJMfx63Y3bbuD6yQ9UYVc4ffXKx/jZVVI5OyiZC2ypjA7LxPbekN7A7eGWhJfs33PenG3Pv/B0r6K8+H+HnLnfazXDbQs/lxKH1XLfqlcPKyiVVBbXsj3aHMScKIGAGtChnpSePH6/cHaN+VrcgD0lVucdli8E3OrNnMW02tgqWFlI7oYzeLbWjeeIORdNuaMeEDJZ2veM22aS2wxhVzr7o0mJF5eikbCLvKl6sHe7d3XBlauk0HEztlsJ1xpr2NZRKLfRcThxa33WHeuWwsnJJVUEtx6P2NR/GnCiAgBnQopwVyxV1Hj9092X+zswo1v1GSAwbPrByftcXDgkllfP5J7UTElyZx8uiKSFldbK0I9ZOeA7cGaN22+JxKzTT6msiJkuVHNjdcGXaLaaiI7SQasZvjaH5dNg22suJZ/sH3Z3wrFxSVdBuOloOY04UQMAMaFHOSk8ed747WoZgTkGeojylix6hTChh3w5Wnm8ptRMym3XrnqvoQzFl0d3yuO019/SOXjlG7bZH41adn/qaCGXitQ7tbriyuJtPRWb9/Ke+ojucasZS9XXml5Od7Qw69NwZViyXVBW0m46Ww5gTBRAwA1qUszKQx10w+/vvFOQpyjupKePv86yKa1K39c67nWznzvo3/PzBsmgs0tap85vnP3jhnvbWY9RuezRudfJTTxOhzNY8HnWvLO76vc6He07CG4pWMe90KI/nl5OG3zPo0HM1i225pKqg3XS0HMacKICAGdCinJXBPG7RXeSalMxSUuvhnyYoDZTlqhRy2tz7ieUbfUSuajIUyerU+S1ybzzmTx5CQ9ptj8atvvxUNxHKpAFt3vVS1SI5uq8POj3aN8eH39rXkDFTzaE8nl9OPOvUg455PB+Wo3JJVUG76Sh5HNhOi3JWds7jthFSQniPboBLBSpQvluW2ok5J++1emNt5zzualrRaozabYvHrf78VDYRymx7Pq5dL1Ut87gvVc9VTLW75XHbaC+nHH456NBzNYueHlxJVUG76Sh5HNhOi3JWBvO4nXA5yII8ZAK7lfQFU9T3sgTxH3qWULZcphDbe+BTRlANImQZX8cnFvta5LdMbC0fo8q1xeNWeHevFpvIu4oXe/5+3+6mK2t37WeT39WPVWJeD/k8Fe3k8epy8qEFcdB5z30vZTgTVRW0m46Sx4HttChnJQv+I//bKcf3fuV+8n++DMnEgrxZfPbK7Yfgrh75hkqJK65sYMkqfGLiu6MnnRQSfrlysbr/zJctirbJx0p9bF3rY9upCWf9kX9C/Lk7U41R5driccuu9ZOL9df+mMmb6HblPzC+7N3deGVtt+55taYiCrfH68fbno8XU14MrbruvOdiWMXFRf1DHRjGnCiAgBnQopwNu98TF7cWzi64Q4Y1LnO5o4un4b05nyqyJOupUstVD1kh/BLkSr9fWKeQn1kSd+9zhtRRFG27sErO4jd3NUC1bNypA1ch3LH+KBujyrXF45ark6VWtxub0LnYlQ1h0+7GK0vduunVZmTfBP0vWa425/FyyouhuZ3suvOei2Hl5ZKqgnbTUfI4sJ0W5WyklB3iVrfWL39hiaY5+NTdlbsgX3z10u4fF/FveMRgl+p+3GWqkH3M2v+5jwP3d3DrFBL/Owq75/SH86IxLRn93ZLzbh4Pfz4kjMqdcPe4GmOdntotX6j9rxOyJmwn78pmwYoO7264sqLbNBWR7+X+s3D5qWgnj5dTXs5Ced2+QJywYlj5xUn/UAeGMScKIGAGtChvto1vc+6q/d8o9tFcSkQz0/0ACS5HAQTMgBbljbaf/w/obKk7vr2k4Jnm8eqdBFyeAgiYAS3KG20//z/n2TJ8XmX9effRw3gzzeN9nwPEpSiAgBnQorzJLGXu5R7zyD3HdX+gNrybejXzzOM2qj08gYKjAAJmQIvyJjtb7umR758fu49kxHdTr2aeefxsueCxyp4ogIAZ0KIEMIoCCJgBLUoAoyiAgBnQogQwigIImAEtSgCjKICAGdCiBDCKAgiYAS1KAKMogIAZ0KIEMIoCCJgBLUoAoyiAgBnQogQwigIImAEtSgCjKIAAAAAAAAAAAAAAAAAAAAAAAAAAAAAAAAAAAAAAAAAAAAAAAAAAAAAAAAAAAAAAAAAAAAAAAAAAAAAAAAAAAAAAAAAAAAAAAMBtdAHgMhRBwPS0JgGMowgCpqc1CWAcRRAwPa1JAOMogoDpaU0CGEcRBExPaxLAOIogYHpakwDGUQQB09OaBDCOIgiYntYkgHEUQcD0tCYBjKMIAqanNQlgHEUQMD2tSQDjKIKA6WlNAhhHEQRMT2sSwDiKIGB6WpMAxlEEAdPTmgQwjiIImJ7WJAatP2w+0aZztnz3lTZvheryPB3rO9U6bd7+qzbfTIogYHpakxhUZTPbfarNW4E8flmKIGB6WpNvsJNlJzE//2DZNItH4b67zmanzaYb8pPGW316/Tft68erz7S53WDh4vJUijy+C0UQMD2tyTfWy/ct65Z53NJXEPJUnc3O7y6+0maPY9VtNhXaj7Plxu8opcHCxeWpFHl8F4ogYHpak2+qJ3bjXefx83ce/tGS2FHTPHC7nWx2uCm7HYdEaDf5m7PcHrLg+YfNx9qMhlvtKRwUl6dS5PFdKIKA6WlNvqHs7vnRn7rPVTzLYj5RdbJZSNUD4snTZlMOvK4seIlW+5I1eXwXiiBgelqTb6jjhy/cs4T+Ny6Pw7ORTjY7W254ZhLz+PndcDc/hDx+4ymCgOlpTb7BNuRxn6hcNlt/sWya+y/CcUvR/RWcmMetluVx+/epewLv0+HzD5qmOXj0rS8V+Gcwvw3HdY/vSzmhnaySb219ZCOx7z5h17e7/uI9K/KkajUelE7hSCfWR83bL9JO8cX4Udx/FnY0GeRxYC60Jt9gQ3k83lFbNnvo3gw1oVyb3npk9+NWyIr+0j2Bdyn9cWijWVgrJys7erBaPfIFm4XbveezouViv9e4c2Wl1JreRNU47EtzYMn5k7zV9qB0Ckc6cei7aEtlX3ylxcq69XvnmowVeRyYCa3JN9hAHn+px+Mhi3366uLl3fgZlMMNj0xiHrd8HPJis3hysbbb6cOmcbfcz/UGaLqbPX/Hf0TRRuGypH1x98pPdLasFEdysvQDUJq1luz2fH2k7dBqftDrKRyEE0fpO4U7U35xOd5d+En4RmZ7NsTnls3V15tKEQRMT2vyDdaTx49X7s42PL1w2Szkb6Val8lCru4T8nj8sIvVVeOpsjZSxo3CNwd9G7B6rlpVKY0kPPFRmj3OvqukVvODXk/hwJ/QWwGxVPklvR/ghxjHZCfJ48A8aE2+wSwx1XncboOd8Mha2cxvhCQY77n7xGfUKR+HunY8Zr3wXaCTx0OjZR6vKqXWTn3a1a7t6MF11mp+0OspHLgTMY3HUuWXdLm+9TSmzhW8aRRBwPS0Jt9gPXnc+e5IT0CUzUy8D9+exxd6T7BbNybnLAuun/905X4AcAVsMO65ihJrVSm1Fu6Q22zb3FNyTq3mB72ewoE7kj5B35bKvth3NRufH6K1nsZEHgfmQmvyDTaQx12i8vffymYm5u/NeTw/19Ztn6nXefwkvHWpO3hLmv59Tl+tqpRaK/J4+PyIe26et5od9HoKB3bin+7GQatU+UU/nTjvksdbiiBgelqTb7DBPG5pzKUsZTMTU1h7m9w1nMfj8SqP23eLh+GjiK7AaXPvJ5YvdTtfVUqtlXncuHcdXcovcms86PUUDtwJm4JwQKXKL+Xlpj3yODAXWpNvsJ3zuG2EbLfL51WCVFfZ2wmJMGXBmBdDxcNiLFWl1Fonj7ui7lCVW9Nz797CgT8Rf/tUpcov7SictEceB+ZCa/INNpjHdZdq2SxkPUt2vqDSW7+hPJ5+T99adRvhrUoTvynETP0gq15VSq315PFwKLUahINeT+EgnAgfk4ylyi/lBMVZOH+fPA7MhNbkGyxLU0f+l3GO7/3KPeh4vgxJ0bJZs/jsVfrkd/37nKFSNJTHXSsf25kT/d1Bn5nXX7sKrhf3Cz/uuN4mXd1/5gpVlVJreR5ff+Qedq8/94OLrRYHvZ7CgU6Eb1bqofxi32LCh1y+O3oSSrrPjy/5/DgwF1qTbyi7uRSXk5TM0kcHXb5yRxdPLWm5fZfWYxaNVCkayuPp1yCV9e2MsbLu9zndb1iuQqr+mSVx9z5naKaslFor8rg1dOB+2VL30+bdV8VBr6dwEE64YdgUaKf8Ekaxir/Qad8rnMVv7pLHgXnQmnxDpZQd7i11a/3yF5ZXm4NP/R81sWy2+Oql3S4v9HtBVare8X7ctk9cJlw90Wl3B77w/2mD+4sp95+F/54i/icVdrvrKxaVUmt5Hg9/MSUOLrZaHHT6Cnux0XArr1LFF9sIf+XF/Tlf4yajefjinDwOzITWJHa36W3OK2r/j4pr7AT7oQgCpqc1iZ1t/v+AruZsqXvcdCuM2VIEAdPTmsTONv//nFdztgyfV1l/Xjx0xxwpgoDpaU1iV3annH9aZc+O3HPolXuG7d9jxYwpgoDpaU1iV2fL67sdN39+7D4OEt9jxYwpgoDpaU0CGEcRBExPaxLAOIogYHpakwDGUQQB09OaBDCOIgiYntYkgHEUQcD0tCYBjKMIAqanNQlgHEUQMD2tSQDjKIKA6WlNAhhHEQRMT2sSwDiKIAAAAAAAAAAAAAAAAAAAAAAAAAAAAAAAAAAAAAAAAAAAAAAAAAAAAAAAAAAAAAAAAAAAAAAAAAAAAAAAAAAAAAAAAAAAAAAAcOtcALgMRRAwPa1JAOMogoDpaU0CGEcRBExPaxLAOIogYHpakwDGUQQB09OaBDCOIgiYntYkgHEUQcD0tCYBjKMIAqanNQlgHEUQMD2tSQDjKIKA6WlNAhhHEQRMT2sSwDiKIGB6WpMAxlEEAdPTmgQwjiIImJ7WJIBxFEHA9LQmAYyjCAKmpzX5mqw/bD7RpnO2fPeVNrEPp83bf9WmU0339bnmjvbWfDU/V6MIAqanNfmaVAFpu0+1iX0gj29GHsftpDW5JyfLTmJ+/sGyaRaPwn13HZCnzaYb8pPGW316/Tft68erz7S53ajCr9XM8/hlJ448DmykNbkXL9+3rFvmcYvAIMRPHZDndxdfabPHseo2mwrtx9ly43eU0qjCr9XM8/hlJ448DmykNbkPT+zGu87j5+88/KPF4VHTPHC7nYA83BSgxz7q13aTvzn69hCd5x82H2szGm61p/Brsu1Krz2PDwxgx44uO3HkcWAjrck9sLvnR3/qPlfxLBB9AHUCMqTqAfHkabM5jPcancn1tHo128ZUnZ9bHr8s8jiwkdbkHhw/fOF+cO5/4/I4PBvpBOTZcsMzk5jHz++Gu/kh15Nxr6fVq9k2puo8ebyy19dUEQRMT2tyTzbkcR9ALiDXXyyb5v6LcNxSdH8FJ+Zxq2V53P596p7A+4h+/kHTNAePvvWlAv8M5rfhuO7xfSkntJNV8q2tj2wk9t0n7Pp211+8Z0WeVK3Gg9IpHHWHeP9ZOJFKxrpKKW2NwboX65OeMdVlwqT25PF2uvUa+MPZ98XUfDuEqmT/pORT7TryX+sZKV+DUKwzjuxK3BCyl0Vcva3XkXcUd/Viu4H1zc/VKIKA6WlN7slQHo931BZ5Dy1ROKGci1C/0Se7H7dCVvSXFow+sTwObTQLa+VkZUcPVqtHvmCzcLv3fLRa2vF7jTtXVkqt6U1UjcO+NAeWij7JW20PSqdwZEfSEO3kYmXbVUnVzfK4agzVvTjXhD3IxzRQZlXmKSuUTXd6cYpXqW2+HUJZ0nXVmZRyqq1IdZ1R8RqEYtU4XKV8pvKXRezo1uvY9GIPzc/VKIKA6WlN7kkRWa2XejweYvbTVxcv78Y4PXQJZEDM4xai1qqv++RibXdYh03j7gOf6w3QdJd1/o7/iKKNwuUE++LuDJ/obFkpjuRk6Qdgu66KtWR3fOsjbYdW84NeT+GgGKK/wBM/9Kyk6sbm2xpDdd2eXcbL992xNKbeMs8tW8Xznm8zTbftxfnMSmXNpyGUJfPrTAMop9oq6Gw1I+VrEIrZv+E1D+MorsQPoX1ZJB7dcB0bX+yh+bkaRRAwPa3JPbFocmkld7xyd0n6MdlC0AdtjH8XYSEm+4Q8Hj/s4oI5NJ4qa6PNbhK+OejbgNVz1apKaSQhGdiuO3ucZY/Uan7Q6ykc5EMMrYehZCVVNzbf1hiqa8P1h9cf2cE0pk4Z36i1UcyE7efTfRr20hCcvPl2CEXJ3kmJwlSrye6MlK9BKuYbCXvlldixsJvn6Pbo8HVsfLHjrp2thn8ViiBgelqTexKzQsbujJzyOarbCCEf77n7xMexKUQVtm2Mh+8CneQSGi1Du6qUWgtJQbu2owfOWav5Qa+ncJAP0fetVrKSWb+u+bbGUN0ioaUxDZRJ54PUpm3YdIfnU/YiKXM6efPtEIqSvZMShYGoZndGytdAxYrWyytJQ7Cm2kGmo7YxeB15R9WLPTQ/V6MIAqanNbknPXnc+e5IP9+mgFQGzsK4R8jji/heYadujNcsOtfPf7pyPwC4AjYY96O2PipTVUqthWygXfvS3FMqSq3mB72ewoFOGPvuZePwQwmdxZKpSGi+rTFUtx23SWMaKFPlqbxNVyL8W0x53nxbvChph7uTYoezqVbNvGRQvgaxg7z1zkyFIRRJOh1VzZ7r2Phip91qfq5GEQRMT2tyTwbyuAsgf//dBmQMwiIYK+W5PJjDvbyiNIvOk/Aeme7gLUX4t76UO4pKVcKIu/5zDe5RbN5qdtDrKRzkQ0zetVbakqlIaL6tMVS3HbdJY6rL9Oepts0wlf5a7W42e43y5tviZcneSSmmOtbszIgbaPsaxGL+Ztt2XOvllaQhDOTxwesoO6pebPI4bjmtyT0ZzOMWiXm8u0gLodXeOXUN5/F4vMrj9t3iofugWah42tz7iWUH3c5XlaqE0Tbu3w1zWaCI+XjQ6ykc9A0xUslUJDTf1hiqW+ylMQ2UqfJU3abtP6jK5A21xTslO5NSTnVWs5yR8jWIxfyDETVVXklqaCCPD17Hxhc77ZZ1rkgRBExPa3JPds7jPhKd4nazMpTHQ/Z2QoCm6IzxGioeFmOpKqXWOnncFXWHqpjXT+xOT+Ggb4gtXzIVCc23NYbqFntpTANlqjGnNm3DT7MrWM543lA7hJ6S1aSUU53XVMmgfA1SMVdLrZdXkkr053HbGLiOjS922q3m52oUQcD0tCb3ZDCP2wkXdRaHITztds4XTBHaZyiPp9/Tt1bdRnpPLIZ2zNQPsupVpdRaTx4Ph4p32uJBr6dw0J7omwhf0or4i7KvLqW0NYbqppk6si9pTP1lzt8v85S1GcqnAneb35WPI/Lm2yH0lKwmpZjqoqZKenY8fw1SMSvyH2q9vJK8RGzEH91yHVVHVi424zaG5udqFEHA9LQm9yQLyiP/GyLH937lfvp+vgyBaOHWLD57lT7XWz/kDJWioTzuWvnYzpzoz+f5YF1/7Sq4XtzvgLjjept0df+ZK1RVSq2FhBF21x/5R9if+8HFVouDXk/hIDXq8lv46MZ3R0/KkjYqG4Z7+uD22hoDdd3x8AFvN1HpSnvL2KxmgzF2vJxuqxbmJsmbz4aQleydlGqqQ82eGem8BqEDN7A4jvpKQok6j2+7jm0vdu/8XI0iCJie1uQe2E2PuFhxoWOBGMLLuDhyRxdPLZjcfojSIlxjpWgoj6dfz1PWd1Hrw9q+K/jfJ1yF6P2ZxbV76ys0U1ZKrRV53Bo6cL9a6L63xFaLg15P4SCc8Hxvq/BrikVJt2MWv7mraVKNgbo+dXruk5uhsruc3jJqNOlMt3+RYjdB1nw2hKyk67MzKfVUD85I8Rq0Hbh1oc3iSlKJKo9vvY6NL/bQ/FyNIgiYntbkHqSUHe55dGv98hcW7M3Bp+6u3AfkVy/tHm4R/3xGmap3vB+37RMX96snOu1uCxfufyjwf5rj/rPw31PE/6TCbsN8xaJSlTC06/8+SBxcbLU46PQV9oohhj/w4f5sb9Vs+PMh58N5vKirCvFji/FKqzJuUlOjSWe6XS9ZfvTa5vMhZCV7J6WcatXszkj5GrQd2LeBNI5ipmKJOo9vu46NL/bQ/FyNIgiYntbkVMo3q/aq/T8qrrGTGye+P7nd7iWHXd9rUI1uihdbEQRMT2tyIpv/P6CrOVvq3qu9C0T1fsQGu5fc4Npeg3p0U7zYiiBgelqTE4k/DV+Hs2X4CMP6886jhDdX+Sm/TXYvucG1vQb16KZ4sRVBwPS0JqdhN09Xv+cbdOSeuq7cE1v/Hiv8hO/41GH3khtd02vQHd0EL7YiCJie1uQ0zpbXdztu/vx46aJb77HCTXj4e9zb7V5ys+t5DXpG9/pfbEUQMD2tSQDjKIKA6WlNAhhHEQRMT2sSwDiKIGB6WpMAxlEEAdPTmgQwjiIImJ7WJIBxFEHA9LQmAYyjCAKmpzUJYBxFEDA9rUkA4yiCgOlpTQIYRxEEAAAAAAAAAAAAAAAAAAAAABhFH8oGMIoCCJgBLUoAoyiAgBnQogQwigIImAEtSgCjKICAGdCiBDCKAgiYAS1KAKMogIAZ0KIEMIoCCJgBLUoAoyiAgBnQogQwigIImAEtSgCjKICAGdCiBDCKAgiYAS1KAKMogIAZ0KIEMIoCCJgBLUoAoyiAgBnQoqz9/M6d7/2ntpPeg9Gv7zzRlne+vBP8zf+rI9fi5/3Nf/ODO3f+UdubrH84fni/e+v72SRo7zINmYHhl9Y//LtX2twTjfZ8+UHYf03G99d76Zec631TAAEzoEVZ+eatnpTdezCpgnTSPO473yVnXCIluLaPtN3ukcd3QB4HrocWZdev+1J270Epc9JryhH9ifCbtyz8/x/tbHKZlMD9+GWRx4HroUXZNTqPf1k8WJk4j+/Y+d5SAnl8B+Rx4HpoUXaNzuNl8iSP74I8vhl5HNiFFmXX1jy+/teDO3e+99H/jmF1vsxjrorZsvDPv/effzi48zf/6ar84e/txI+t5vpf37pz5x/+tyr85X/Y3t/+c2gxlvc7jm/OnY2JMC+uR/P+IXbRjCnGsf6hL2gD/csPsq69dMRdSNFKeQlVQ0F5ta6Ff//vdiANozN8L7vKqkNN7MaLKS+iLFpeXhptuLR8YHUP0dqN/87f/y6e+K9DV+7HZ35naNydWXX9xTHrUH0NVVe69PXhnbS28rkuhpHJj6cpXv8wvj7fvHXU86IUY0/X1F0ZkQIImAEtyq5tefxLW/XePyoCUyR6Lk5aVeGff+9Htv13ryyP/0s4/nevFJ/q4Heq8D3/rCaW96dMbO57/6koLYpnebxsph5HSgnuHVzzu1DIaY/Yhfzab8dWwnXGIfm9Ko9XV9u2oCvoDD9or7Icdszjmy+muIiyaHV5eR7XKQ2s7iFyH/8JJ8Kr84dYzjc5NO7OrLb9pbeKq2uouwqXbgN23+iDbK7LYbSK41/Grr55K062m/XOi1KOPV5T5xpaCiBgBrQou7bk8S/v3HE3VWsXM4oPu4fxXz0l03CyLvzzO3e+7+5xXKHv/97fuP3jD79nt2DxxutLu0+yu6n/+te3fFjF8tI29zf/p++7Km4hG1JqfbwzaH3v+bXLE//+37Pht0fcGN3QLv5vu3N1rSiPa0hqQV+8upfQgh04DCmlM3xJV1kNW3l828VkF1EV7VyeRnu+/Nu3vv8/Ly7+/a04sLKHyJLZP/wv+2oz4F9i69nd6/7XYZiQoXF3unX9hRJ2v1xNhV6Qqit/6X9ZxlQcxLmuhpGUx9MrY8MMzfjV0X1RirHHa+qujEQBBMyAFmXX5jxuYaB7FNtSoBQ1XJzEPN4p/HNVsd1wN2QbofL6h+7r+fJvfGJQIKfyQdbcD/yJunjM4/XxzjhikBe3xV57JI3R7vN8pVAnDkktpGzR00vsrDuKMPyonZVy2LHalovJh1xNX96Lo9FaRXfazVdfD5HdAauni2/+wb868YUOEzI07k63qT+fry1ddq6h7so19Ie3qvvtNPpyGFF9XL/YcL58oAd/fp2qwzjWzth1trsyEgUQMANalF2b83j6adWFpNZ68ZtA9nOrtnoK/1wHLJhCFYtfFfGNZC1985ZtxvJBp7m6uP3rO6+PdwetlPDron2nPdKmBTcOayXUiUNSC/ridHppW/BZoW/qvNhkPeyQWbZeTDvkumjn8upMGPY70yhZT17WnN8cGnen23wqv3RPRjrXUHdll/4vxY9ijkZfDyOqj+t9G1u6/uXTfvWi1GNvrylruaQAAmZAi7Jrcx7PnqGkFJbFgouTNo93CoeAcoVUNR2xSPZRlLFASme9nuYyLu6UxzvNdAadvtz5vvtpvtUeyS/Et1teQtmQ0+mlfQPYp4y+qfNik/Ww4x1ipu9i2iF3G6guT/3WA1MNz02jZD152T2qn5DhcVfd5lPph9C5hrorayLdwicafT2MqHPcj89NYtgNy3TLtbcvb70yEgUQMANalF1b8ngbLGl7OI/XhWO4ZsEUG3Z53EVvy9opw7turlNc8dttph6HFQmH1od37uS/3ZMdyS/Eb5cZRy3Ehkynlzpl1OcjNdkZts/ju1yMhtydj/ryNNpyYN1qUgwyVfb8hAyNu9NtPpW+1c41VF35NuMYkzCAzjCke9yvBneX7R/ahe+K2649rbjuyogUQMAMaFF2Xev9uA4M5PFOOGcNmG5zVfF4f7ahGQ26DXr3qcds+EZH8gvx7ZaX0Gmo20vbgh9QdxQST9TD1v14dbSvGQ25Mx/pjKhCPbBuNS/rycvK+QkZGrcpu82n0g+hcw11V3bp/3Ln+1WzGn09jKh73LXqj7rHNnp0s+Xa85F1VkagAAJmQIuya3Me9483g/SQt6iRx2yncIySoTxefEcwZXh3mquLx/itj3cHnTKg+UsaTOSPDD0f11G1kDXU6aVKGX1T58Um62GHPL79Yhw/5M58OPnlabTVwHqrmawnr34APTRuL++25/l4dQ11V+7S/3AnvgUpGn09jKh73Fo9X7otq/n/1wu15dqLFdddGY4CCJgBLcquzXk8+6RB+tBFcU+T5/FO4RglQ3k8+/TA//FjK1FEVdac/TjsmquLW1LwndfHu4PO0m+xHfgjVikOsvi8ioakWlnlTi9VyugMP2pnpRx2yOPbL8bRkKv58JvtCON2Z2A91Uzb08U37ldi2nQcku/QuMNm1q01FO+t/+Lf4e6ZqrIrf+lfvlW8/O3oy2FE3eNW4ZNw7Nd3/n+6dd9y7cWKy6+hpQACZkCLsqvN41/6T6V52cE7dz76X7bE7YdOZZFyted5vFO4jfz+PG7x5j+y/V9Wwd1HFVHV03dVPObxzvFORY358J/9R9ezEbdH/Ieeez4/riGphfzi616qlNEdhaSrrIYd8vjWi8kuoirauTyNth5Y3UP0Zefz498rPj8+MO5Ot5al7/jfnyw+P15MRdVVuPRvyk8exrmuhpF0j/86Pu+3EWiwW649XlN3ZSQKIGAGtCi7Usq2u8a4md+kd34Tr03KTpHH68IxSgbzuIu84MduL52V1NxRCMKqeMrj9fHOoENK0C/tZZ1kR+xCtKdf9Qt14pCUVGJu8ape6pTRHX7QXmU5bOXxLRdTXERRtHt5Gm1nYHUPUZyA2Eb63UefXgfG3e3W+ksl9I2ifkGqrnTpf/lB/o0lzXU5jFbnuKVvZfSfx5S85dp1Td1raCmAgBnQouzacj9u4VT9ZQz3VytabZx4ZeEY+cN5PPy1i/h3ONpMIemvdMREWBS3ocTOy+OdQccv7u9xtIVMe8RdiK8V//RGeQllQ1L20kkZ3eF72VUWw455fMvFFBdRNlBfnkbbHVjdQ7T+17+3dNb+fZVQzt31msFx1926/jZfgz+QdRUv3e4l2m8t7VwXw8h0jv861kgfjN9y7enl7ayMRAEEzIAW5R4MvU12w7UBD2QUQMAMaFFeXXuXdLuQx9FLAQTMgBbl1bXPMm4X8jh6KYCAGdCivLpb+liFPI5+CiBgBrQor+w8/amUW4Y8jl4KIGAGtCgBjKIAAmZAixLAKAogYAa0KAGMogACZkCLEsAoCiBgBrQoAYyiAAJmQIsSwCgKIGAGtCgBjKIAAmZAixLAKAogYAa0KAGMogACAAAAAAAAAAAAAAAAAADY4r/9t/8P5/LDmxP6B1gAAAAASUVORK5CYII=;movable=1;resizable=1;rotatable=1;deletable=1;editable=1;locked=0;connectable=1;" parent="1" vertex="1">
          <mxGeometry x="110" y="-720" width="1479" height="1060" as="geometry" />
        </mxCell>
        <mxCell id="GzvHI5Ee-rDhzpsascGL-2" style="edgeStyle=orthogonalEdgeStyle;rounded=0;orthogonalLoop=1;jettySize=auto;html=1;exitX=0.5;exitY=1;exitDx=0;exitDy=0;entryX=0.5;entryY=0;entryDx=0;entryDy=0;strokeWidth=4;strokeColor=#FFD966;" parent="1" source="R7KhLLLYdQG6cB8DqTUe-1" target="R7KhLLLYdQG6cB8DqTUe-2" edge="1">
          <mxGeometry relative="1" as="geometry" />
        </mxCell>
        <mxCell id="R7KhLLLYdQG6cB8DqTUe-1" value="1.1) You were doing routine check of your farm animals" style="rounded=0;whiteSpace=wrap;html=1;fillColor=#f5f5f5;fontColor=#333333;strokeColor=#666666;fontSize=16;" parent="1" vertex="1">
          <mxGeometry x="-760" y="-430" width="440" height="50" as="geometry" />
        </mxCell>
        <mxCell id="GzvHI5Ee-rDhzpsascGL-3" style="rounded=0;orthogonalLoop=1;jettySize=auto;html=1;exitX=0.5;exitY=1;exitDx=0;exitDy=0;entryX=0.5;entryY=0;entryDx=0;entryDy=0;strokeColor=#FFD966;strokeWidth=4;align=center;verticalAlign=middle;fontFamily=Helvetica;fontSize=11;fontColor=default;labelBackgroundColor=default;endArrow=classic;" parent="1" source="R7KhLLLYdQG6cB8DqTUe-2" target="R7KhLLLYdQG6cB8DqTUe-5" edge="1">
          <mxGeometry relative="1" as="geometry" />
        </mxCell>
        <mxCell id="R7KhLLLYdQG6cB8DqTUe-2" value="1.2) Your village was hit by a violent earthquake" style="rounded=0;whiteSpace=wrap;html=1;fillColor=#f5f5f5;fontColor=#333333;strokeColor=#666666;fontSize=16;autosize=0;" parent="1" vertex="1">
          <mxGeometry x="-700" y="-350" width="320" height="50" as="geometry" />
        </mxCell>
        <mxCell id="GzvHI5Ee-rDhzpsascGL-4" style="rounded=0;orthogonalLoop=1;jettySize=auto;html=1;exitX=0.5;exitY=1;exitDx=0;exitDy=0;entryX=0.5;entryY=0;entryDx=0;entryDy=0;strokeColor=#FFD966;strokeWidth=4;align=center;verticalAlign=middle;fontFamily=Helvetica;fontSize=11;fontColor=default;labelBackgroundColor=default;endArrow=classic;" parent="1" source="R7KhLLLYdQG6cB8DqTUe-5" target="R7KhLLLYdQG6cB8DqTUe-6" edge="1">
          <mxGeometry relative="1" as="geometry" />
        </mxCell>
        <mxCell id="R7KhLLLYdQG6cB8DqTUe-5" value="1.3) you rush out to check out the damage of the earthquake and noticed a castle had floated to the sky!" style="rounded=0;whiteSpace=wrap;html=1;fillColor=#f5f5f5;fontColor=#333333;strokeColor=#666666;fontSize=16;autosize=0;" parent="1" vertex="1">
          <mxGeometry x="-710" y="-275" width="340" height="60" as="geometry" />
        </mxCell>
        <mxCell id="GzvHI5Ee-rDhzpsascGL-5" style="edgeStyle=none;rounded=0;orthogonalLoop=1;jettySize=auto;html=1;exitX=0.5;exitY=1;exitDx=0;exitDy=0;entryX=0.5;entryY=0;entryDx=0;entryDy=0;strokeColor=#FFD966;strokeWidth=4;align=center;verticalAlign=middle;fontFamily=Helvetica;fontSize=11;fontColor=default;labelBackgroundColor=default;endArrow=classic;" parent="1" source="R7KhLLLYdQG6cB8DqTUe-6" target="R7KhLLLYdQG6cB8DqTUe-7" edge="1">
          <mxGeometry relative="1" as="geometry" />
        </mxCell>
        <mxCell id="R7KhLLLYdQG6cB8DqTUe-6" value="1.4) god speaks to you" style="rounded=0;whiteSpace=wrap;html=1;fillColor=#f5f5f5;fontColor=#333333;strokeColor=#666666;fontSize=16;autosize=0;" parent="1" vertex="1">
          <mxGeometry x="-630" y="-190" width="180" height="50" as="geometry" />
        </mxCell>
        <mxCell id="GzvHI5Ee-rDhzpsascGL-6" style="edgeStyle=none;rounded=0;orthogonalLoop=1;jettySize=auto;html=1;exitX=0.5;exitY=1;exitDx=0;exitDy=0;entryX=0.5;entryY=0;entryDx=0;entryDy=0;strokeColor=#FFD966;strokeWidth=4;align=center;verticalAlign=middle;fontFamily=Helvetica;fontSize=11;fontColor=default;labelBackgroundColor=default;endArrow=classic;" parent="1" source="R7KhLLLYdQG6cB8DqTUe-7" target="R7KhLLLYdQG6cB8DqTUe-8" edge="1">
          <mxGeometry relative="1" as="geometry" />
        </mxCell>
        <mxCell id="R7KhLLLYdQG6cB8DqTUe-7" value="god tells you that an ancient vengent spirit had escaped, causing both the earthquake and floating castle" style="rounded=0;whiteSpace=wrap;html=1;fillColor=#f5f5f5;fontColor=#333333;strokeColor=#666666;fontSize=16;autosize=1;" parent="1" vertex="1">
          <mxGeometry x="-775" y="-110" width="470" height="70" as="geometry" />
        </mxCell>
        <mxCell id="GzvHI5Ee-rDhzpsascGL-7" style="edgeStyle=none;rounded=0;orthogonalLoop=1;jettySize=auto;html=1;exitX=0.5;exitY=1;exitDx=0;exitDy=0;entryX=0.5;entryY=0;entryDx=0;entryDy=0;strokeColor=#FFD966;strokeWidth=4;align=center;verticalAlign=middle;fontFamily=Helvetica;fontSize=11;fontColor=default;labelBackgroundColor=default;endArrow=classic;" parent="1" source="R7KhLLLYdQG6cB8DqTUe-8" target="R7KhLLLYdQG6cB8DqTUe-9" edge="1">
          <mxGeometry relative="1" as="geometry" />
        </mxCell>
        <mxCell id="R7KhLLLYdQG6cB8DqTUe-8" value="evil spirit had stolen the cores of the villagers and you, the only one left unscathed, can save them" style="rounded=0;whiteSpace=wrap;html=1;fillColor=#f5f5f5;fontColor=#333333;strokeColor=#666666;fontSize=16;autosize=1;aspect=fixed;" parent="1" vertex="1">
          <mxGeometry x="-724.875" y="-10" width="369.75" height="70" as="geometry" />
        </mxCell>
        <mxCell id="GzvHI5Ee-rDhzpsascGL-8" style="edgeStyle=none;rounded=0;orthogonalLoop=1;jettySize=auto;html=1;exitX=0.5;exitY=1;exitDx=0;exitDy=0;entryX=0.5;entryY=0;entryDx=0;entryDy=0;strokeColor=#FFD966;strokeWidth=4;align=center;verticalAlign=middle;fontFamily=Helvetica;fontSize=11;fontColor=default;labelBackgroundColor=default;endArrow=classic;" parent="1" source="R7KhLLLYdQG6cB8DqTUe-9" target="R7KhLLLYdQG6cB8DqTUe-12" edge="1">
          <mxGeometry relative="1" as="geometry" />
        </mxCell>
        <mxCell id="R7KhLLLYdQG6cB8DqTUe-9" value="god grants you power to defeat the&lt;span style=&quot;background-color: initial;&quot;&gt;&amp;nbsp;evil spirit (and save the world)&lt;/span&gt;" style="rounded=0;whiteSpace=wrap;html=1;fillColor=#f5f5f5;fontColor=#333333;strokeColor=#666666;fontSize=16;autosize=1;aspect=fixed;" parent="1" vertex="1">
          <mxGeometry x="-785" y="99" width="490" height="92.77" as="geometry" />
        </mxCell>
        <mxCell id="R7KhLLLYdQG6cB8DqTUe-10" value="&lt;div&gt;own comment:&lt;/div&gt;a bit awkward? to put save the world at the back&lt;div&gt;maybe its just me&lt;/div&gt;" style="rounded=1;whiteSpace=wrap;html=1;fillColor=#dae8fc;strokeColor=#6c8ebf;fontSize=16;autosize=1;aspect=fixed;fontColor=#080808;" parent="1" vertex="1">
          <mxGeometry x="-330" y="9.950000000000003" width="370" height="70.05" as="geometry" />
        </mxCell>
        <mxCell id="GzvHI5Ee-rDhzpsascGL-9" style="edgeStyle=none;rounded=0;orthogonalLoop=1;jettySize=auto;html=1;exitX=0.5;exitY=1;exitDx=0;exitDy=0;entryX=0.5;entryY=0;entryDx=0;entryDy=0;strokeColor=#FFD966;strokeWidth=4;align=center;verticalAlign=middle;fontFamily=Helvetica;fontSize=11;fontColor=default;labelBackgroundColor=default;endArrow=classic;" parent="1" source="R7KhLLLYdQG6cB8DqTUe-12" target="R7KhLLLYdQG6cB8DqTUe-14" edge="1">
          <mxGeometry relative="1" as="geometry" />
        </mxCell>
        <mxCell id="R7KhLLLYdQG6cB8DqTUe-12" value="god sends you to the sky castle" style="rounded=0;whiteSpace=wrap;html=1;fillColor=#f5f5f5;fontColor=#333333;strokeColor=#666666;fontSize=16;autosize=1;aspect=fixed;" parent="1" vertex="1">
          <mxGeometry x="-665" y="253" width="250" height="47.33" as="geometry" />
        </mxCell>
        <mxCell id="R7KhLLLYdQG6cB8DqTUe-22" style="rounded=0;orthogonalLoop=1;jettySize=auto;html=1;exitX=1;exitY=0.5;exitDx=0;exitDy=0;entryX=0;entryY=0.5;entryDx=0;entryDy=0;endArrow=none;endFill=0;strokeColor=#6C8EBF;" parent="1" source="R7KhLLLYdQG6cB8DqTUe-13" target="R7KhLLLYdQG6cB8DqTUe-12" edge="1">
          <mxGeometry relative="1" as="geometry" />
        </mxCell>
        <mxCell id="R7KhLLLYdQG6cB8DqTUe-13" value="&lt;div&gt;unnecessary comment here&lt;/div&gt;&lt;div&gt;but&lt;/div&gt;&lt;div&gt;&lt;i&gt;whoosh whoosh&lt;/i&gt;&lt;/div&gt;" style="rounded=0;whiteSpace=wrap;html=1;fillColor=#dae8fc;strokeColor=#6c8ebf;fontSize=16;autosize=1;fontColor=#080808;aspect=fixed;" parent="1" vertex="1">
          <mxGeometry x="-950.38" y="240" width="220" height="52.92" as="geometry" />
        </mxCell>
        <mxCell id="GzvHI5Ee-rDhzpsascGL-10" style="edgeStyle=none;rounded=0;orthogonalLoop=1;jettySize=auto;html=1;exitX=0.5;exitY=1;exitDx=0;exitDy=0;entryX=0.5;entryY=0;entryDx=0;entryDy=0;strokeColor=#FFD966;strokeWidth=4;align=center;verticalAlign=middle;fontFamily=Helvetica;fontSize=11;fontColor=default;labelBackgroundColor=default;endArrow=classic;" parent="1" source="R7KhLLLYdQG6cB8DqTUe-14" target="R7KhLLLYdQG6cB8DqTUe-15" edge="1">
          <mxGeometry relative="1" as="geometry" />
        </mxCell>
        <mxCell id="R7KhLLLYdQG6cB8DqTUe-14" value="you defeat the spirits&#39; army" style="rounded=0;whiteSpace=wrap;html=1;fillColor=#f5f5f5;fontColor=#333333;strokeColor=#666666;fontSize=16;autosize=1;aspect=fixed;" parent="1" vertex="1">
          <mxGeometry x="-645" y="354" width="210" height="39.76" as="geometry" />
        </mxCell>
        <mxCell id="GzvHI5Ee-rDhzpsascGL-11" style="edgeStyle=none;rounded=0;orthogonalLoop=1;jettySize=auto;html=1;exitX=0.5;exitY=1;exitDx=0;exitDy=0;strokeColor=#FFD966;strokeWidth=4;align=center;verticalAlign=middle;fontFamily=Helvetica;fontSize=11;fontColor=default;labelBackgroundColor=default;endArrow=classic;entryX=0.5;entryY=0;entryDx=0;entryDy=0;" parent="1" source="R7KhLLLYdQG6cB8DqTUe-15" target="R7KhLLLYdQG6cB8DqTUe-16" edge="1">
          <mxGeometry relative="1" as="geometry" />
        </mxCell>
        <mxCell id="R7KhLLLYdQG6cB8DqTUe-15" value="you found and unlocked the room holding the villagers&#39; cores" style="rounded=0;whiteSpace=wrap;html=1;fillColor=#f5f5f5;fontColor=#333333;strokeColor=#666666;fontSize=16;autosize=1;aspect=fixed;" parent="1" vertex="1">
          <mxGeometry x="-765" y="440" width="450" height="85.2" as="geometry" />
        </mxCell>
        <mxCell id="GzvHI5Ee-rDhzpsascGL-12" style="edgeStyle=none;rounded=0;orthogonalLoop=1;jettySize=auto;html=1;exitX=0.5;exitY=1;exitDx=0;exitDy=0;entryX=0.5;entryY=0;entryDx=0;entryDy=0;strokeColor=#FFD966;strokeWidth=4;align=center;verticalAlign=middle;fontFamily=Helvetica;fontSize=11;fontColor=default;labelBackgroundColor=default;endArrow=classic;" parent="1" source="R7KhLLLYdQG6cB8DqTUe-16" target="R7KhLLLYdQG6cB8DqTUe-17" edge="1">
          <mxGeometry relative="1" as="geometry" />
        </mxCell>
        <mxCell id="R7KhLLLYdQG6cB8DqTUe-16" value="the evil spirit ambushes you!" style="rounded=0;whiteSpace=wrap;html=1;fillColor=#f5f5f5;fontColor=#333333;strokeColor=#666666;fontSize=16;autosize=1;aspect=fixed;" parent="1" vertex="1">
          <mxGeometry x="-655" y="570" width="230" height="43.55" as="geometry" />
        </mxCell>
        <mxCell id="GzvHI5Ee-rDhzpsascGL-13" style="edgeStyle=none;rounded=0;orthogonalLoop=1;jettySize=auto;html=1;exitX=0.5;exitY=1;exitDx=0;exitDy=0;entryX=0.5;entryY=0;entryDx=0;entryDy=0;strokeColor=#FFD966;strokeWidth=4;align=center;verticalAlign=middle;fontFamily=Helvetica;fontSize=11;fontColor=default;labelBackgroundColor=default;endArrow=classic;" parent="1" source="R7KhLLLYdQG6cB8DqTUe-17" target="R7KhLLLYdQG6cB8DqTUe-18" edge="1">
          <mxGeometry relative="1" as="geometry" />
        </mxCell>
        <mxCell id="R7KhLLLYdQG6cB8DqTUe-17" value="you were killed by the spirit" style="rounded=0;whiteSpace=wrap;html=1;fillColor=#f5f5f5;fontColor=#333333;strokeColor=#666666;fontSize=16;autosize=1;aspect=fixed;" parent="1" vertex="1">
          <mxGeometry x="-650" y="651" width="220" height="41.66" as="geometry" />
        </mxCell>
        <mxCell id="GzvHI5Ee-rDhzpsascGL-14" style="edgeStyle=none;rounded=0;orthogonalLoop=1;jettySize=auto;html=1;exitX=0.5;exitY=1;exitDx=0;exitDy=0;entryX=0.5;entryY=0;entryDx=0;entryDy=0;strokeColor=#FFD966;strokeWidth=4;align=center;verticalAlign=middle;fontFamily=Helvetica;fontSize=11;fontColor=default;labelBackgroundColor=default;endArrow=classic;" parent="1" source="R7KhLLLYdQG6cB8DqTUe-18" target="R7KhLLLYdQG6cB8DqTUe-19" edge="1">
          <mxGeometry relative="1" as="geometry" />
        </mxCell>
        <mxCell id="R7KhLLLYdQG6cB8DqTUe-18" value="the crystals you got from god resurrects you" style="rounded=0;whiteSpace=wrap;html=1;fillColor=#f5f5f5;fontColor=#333333;strokeColor=#666666;fontSize=16;autosize=1;aspect=fixed;" parent="1" vertex="1">
          <mxGeometry x="-705" y="720" width="330" height="62.49" as="geometry" />
        </mxCell>
        <mxCell id="GzvHI5Ee-rDhzpsascGL-15" style="edgeStyle=none;rounded=0;orthogonalLoop=1;jettySize=auto;html=1;exitX=0.5;exitY=1;exitDx=0;exitDy=0;entryX=0.5;entryY=0;entryDx=0;entryDy=0;strokeColor=#FFD966;strokeWidth=4;align=center;verticalAlign=middle;fontFamily=Helvetica;fontSize=11;fontColor=default;labelBackgroundColor=default;endArrow=classic;" parent="1" source="R7KhLLLYdQG6cB8DqTUe-19" target="R7KhLLLYdQG6cB8DqTUe-20" edge="1">
          <mxGeometry relative="1" as="geometry" />
        </mxCell>
        <mxCell id="R7KhLLLYdQG6cB8DqTUe-19" value="you defeat the spirit and freed the stolen cores" style="rounded=0;whiteSpace=wrap;html=1;fillColor=#f5f5f5;fontColor=#333333;strokeColor=#666666;fontSize=16;autosize=1;aspect=fixed;" parent="1" vertex="1">
          <mxGeometry x="-715" y="818" width="350" height="66.28" as="geometry" />
        </mxCell>
        <mxCell id="R7KhLLLYdQG6cB8DqTUe-20" value="the cores return to the villagers and the world is saved" style="rounded=0;whiteSpace=wrap;html=1;fillColor=#f5f5f5;fontColor=#333333;strokeColor=#666666;fontSize=16;autosize=1;aspect=fixed;" parent="1" vertex="1">
          <mxGeometry x="-745" y="924" width="410" height="77.64" as="geometry" />
        </mxCell>
        <mxCell id="R7KhLLLYdQG6cB8DqTUe-21" style="rounded=0;orthogonalLoop=1;jettySize=auto;html=1;exitX=0.25;exitY=1;exitDx=0;exitDy=0;entryX=0.887;entryY=0.334;entryDx=0;entryDy=0;entryPerimeter=0;strokeColor=#6C8EBF;endArrow=none;endFill=0;" parent="1" source="R7KhLLLYdQG6cB8DqTUe-10" target="R7KhLLLYdQG6cB8DqTUe-9" edge="1">
          <mxGeometry relative="1" as="geometry" />
        </mxCell>
        <mxCell id="R7KhLLLYdQG6cB8DqTUe-25" style="rounded=0;orthogonalLoop=1;jettySize=auto;html=1;exitX=1;exitY=0.75;exitDx=0;exitDy=0;entryX=0;entryY=0.5;entryDx=0;entryDy=0;endArrow=none;endFill=0;strokeColor=#6C8EBF;" parent="1" source="R7KhLLLYdQG6cB8DqTUe-24" target="R7KhLLLYdQG6cB8DqTUe-23" edge="1">
          <mxGeometry relative="1" as="geometry" />
        </mxCell>
        <mxCell id="R7KhLLLYdQG6cB8DqTUe-24" value="&lt;div&gt;yes this whole thing is the inciting incident&lt;/div&gt;&lt;div&gt;well actually more like the progressive worsening of events that happens&lt;/div&gt;&lt;div&gt;its definitely way too much, but hey, guess who didnt get the plot reviewed beforehand &#39; -&#39;&lt;/div&gt;" style="rounded=1;whiteSpace=wrap;html=1;fillColor=#dae8fc;strokeColor=#6c8ebf;fontSize=16;autosize=1;fontColor=#080808;aspect=fixed;" parent="1" vertex="1">
          <mxGeometry x="-1190" y="-370" width="400" height="123.07" as="geometry" />
        </mxCell>
        <mxCell id="GzvHI5Ee-rDhzpsascGL-17" style="edgeStyle=orthogonalEdgeStyle;rounded=0;orthogonalLoop=1;jettySize=auto;html=1;exitX=0.5;exitY=1;exitDx=0;exitDy=0;entryX=0.5;entryY=0;entryDx=0;entryDy=0;strokeWidth=4;strokeColor=#FFD966;" parent="1" source="GzvHI5Ee-rDhzpsascGL-18" target="GzvHI5Ee-rDhzpsascGL-19" edge="1">
          <mxGeometry relative="1" as="geometry" />
        </mxCell>
        <mxCell id="GzvHI5Ee-rDhzpsascGL-18" value="1) You were doing routine check of your farm animals" style="rounded=0;whiteSpace=wrap;html=1;fillColor=#f5f5f5;fontColor=#333333;strokeColor=#666666;fontSize=16;" parent="1" vertex="1">
          <mxGeometry x="-1890" y="-390" width="440" height="50" as="geometry" />
        </mxCell>
        <mxCell id="GzvHI5Ee-rDhzpsascGL-23" style="edgeStyle=none;rounded=0;orthogonalLoop=1;jettySize=auto;html=1;exitX=0.25;exitY=1;exitDx=0;exitDy=0;entryX=0.5;entryY=0;entryDx=0;entryDy=0;strokeColor=#7DFF69;strokeWidth=4;align=center;verticalAlign=middle;fontFamily=Helvetica;fontSize=11;fontColor=default;labelBackgroundColor=default;endArrow=classic;" parent="1" source="GzvHI5Ee-rDhzpsascGL-19" target="GzvHI5Ee-rDhzpsascGL-20" edge="1">
          <mxGeometry relative="1" as="geometry" />
        </mxCell>
        <mxCell id="GzvHI5Ee-rDhzpsascGL-26" style="edgeStyle=none;rounded=0;orthogonalLoop=1;jettySize=auto;html=1;exitX=0.75;exitY=1;exitDx=0;exitDy=0;entryX=0.5;entryY=0;entryDx=0;entryDy=0;strokeColor=#FFD966;strokeWidth=4;align=center;verticalAlign=middle;fontFamily=Helvetica;fontSize=11;fontColor=default;labelBackgroundColor=default;endArrow=classic;" parent="1" source="GzvHI5Ee-rDhzpsascGL-19" target="GzvHI5Ee-rDhzpsascGL-24" edge="1">
          <mxGeometry relative="1" as="geometry" />
        </mxCell>
        <mxCell id="GzvHI5Ee-rDhzpsascGL-19" value="2) Your village was hit by a violent earthquake" style="rounded=0;whiteSpace=wrap;html=1;fillColor=#f5f5f5;fontColor=#333333;strokeColor=#666666;fontSize=16;autosize=0;" parent="1" vertex="1">
          <mxGeometry x="-1830" y="-310" width="320" height="50" as="geometry" />
        </mxCell>
        <mxCell id="GzvHI5Ee-rDhzpsascGL-29" style="edgeStyle=none;rounded=0;orthogonalLoop=1;jettySize=auto;html=1;exitX=0.5;exitY=1;exitDx=0;exitDy=0;entryX=0.25;entryY=0;entryDx=0;entryDy=0;strokeColor=#7DFF69;strokeWidth=4;align=center;verticalAlign=middle;fontFamily=Helvetica;fontSize=11;fontColor=default;labelBackgroundColor=default;endArrow=classic;" parent="1" source="GzvHI5Ee-rDhzpsascGL-20" target="GzvHI5Ee-rDhzpsascGL-27" edge="1">
          <mxGeometry relative="1" as="geometry" />
        </mxCell>
        <mxCell id="GzvHI5Ee-rDhzpsascGL-20" value="3a) You tried to protect the animals but got hurt by their frenzied running" style="rounded=0;whiteSpace=wrap;html=1;fillColor=#f5f5f5;fontColor=#333333;strokeColor=#666666;fontSize=16;autosize=0;" parent="1" vertex="1">
          <mxGeometry x="-2010" y="-220" width="320" height="50" as="geometry" />
        </mxCell>
        <mxCell id="GzvHI5Ee-rDhzpsascGL-22" style="edgeStyle=none;rounded=0;orthogonalLoop=1;jettySize=auto;html=1;exitX=0;exitY=0.5;exitDx=0;exitDy=0;entryX=1;entryY=0.75;entryDx=0;entryDy=0;strokeColor=#6C8EBF;strokeWidth=1;align=center;verticalAlign=middle;fontFamily=Helvetica;fontSize=11;fontColor=default;labelBackgroundColor=default;endArrow=none;endFill=0;" parent="1" source="GzvHI5Ee-rDhzpsascGL-21" target="R7KhLLLYdQG6cB8DqTUe-2" edge="1">
          <mxGeometry relative="1" as="geometry" />
        </mxCell>
        <mxCell id="GzvHI5Ee-rDhzpsascGL-21" value="i should probably do proper order of precedence by following with &quot;protagonist goes out to check&quot;&lt;div&gt;maybe i add to castle in sky bubble?&lt;/div&gt;" style="rounded=1;whiteSpace=wrap;html=1;fillColor=#dae8fc;strokeColor=#6c8ebf;fontSize=16;autosize=1;fontColor=#080808;aspect=fixed;" parent="1" vertex="1">
          <mxGeometry x="-295" y="-317.31" width="316.27" height="97.31" as="geometry" />
        </mxCell>
        <mxCell id="GzvHI5Ee-rDhzpsascGL-30" style="edgeStyle=none;rounded=0;orthogonalLoop=1;jettySize=auto;html=1;exitX=0.5;exitY=1;exitDx=0;exitDy=0;entryX=0.75;entryY=0;entryDx=0;entryDy=0;strokeColor=#FFD966;strokeWidth=4;align=center;verticalAlign=middle;fontFamily=Helvetica;fontSize=11;fontColor=default;labelBackgroundColor=default;endArrow=classic;" parent="1" source="GzvHI5Ee-rDhzpsascGL-24" target="GzvHI5Ee-rDhzpsascGL-27" edge="1">
          <mxGeometry relative="1" as="geometry" />
        </mxCell>
        <mxCell id="GzvHI5Ee-rDhzpsascGL-24" value="3b) You ran and hid at the safest place possible" style="rounded=0;whiteSpace=wrap;html=1;fillColor=#f5f5f5;fontColor=#333333;strokeColor=#666666;fontSize=16;autosize=0;" parent="1" vertex="1">
          <mxGeometry x="-1650" y="-220" width="320" height="50" as="geometry" />
        </mxCell>
        <mxCell id="GzvHI5Ee-rDhzpsascGL-25" value="&lt;div&gt;empathy route?&lt;/div&gt;" style="rounded=1;whiteSpace=wrap;html=1;fillColor=#7DFF69;strokeColor=#6c8ebf;fontSize=16;autosize=1;fontColor=#080808;aspect=fixed;rotation=-10;direction=west;" parent="1" vertex="1">
          <mxGeometry x="-2090" y="-260" width="130" height="40" as="geometry" />
        </mxCell>
        <mxCell id="GzvHI5Ee-rDhzpsascGL-33" style="edgeStyle=none;rounded=0;orthogonalLoop=1;jettySize=auto;html=1;exitX=0.5;exitY=1;exitDx=0;exitDy=0;entryX=0.5;entryY=0;entryDx=0;entryDy=0;strokeColor=#FFD966;strokeWidth=4;align=center;verticalAlign=middle;fontFamily=Helvetica;fontSize=11;fontColor=default;labelBackgroundColor=default;endArrow=classic;" parent="1" source="GzvHI5Ee-rDhzpsascGL-27" target="GzvHI5Ee-rDhzpsascGL-32" edge="1">
          <mxGeometry relative="1" as="geometry" />
        </mxCell>
        <mxCell id="GzvHI5Ee-rDhzpsascGL-35" style="edgeStyle=none;rounded=0;orthogonalLoop=1;jettySize=auto;html=1;exitX=0;exitY=0.5;exitDx=0;exitDy=0;entryX=0;entryY=0.5;entryDx=0;entryDy=0;strokeColor=#6C8EBF;strokeWidth=1;align=center;verticalAlign=middle;fontFamily=Helvetica;fontSize=11;fontColor=default;labelBackgroundColor=default;endArrow=none;endFill=0;" parent="1" source="GzvHI5Ee-rDhzpsascGL-27" target="GzvHI5Ee-rDhzpsascGL-34" edge="1">
          <mxGeometry relative="1" as="geometry" />
        </mxCell>
        <mxCell id="GzvHI5Ee-rDhzpsascGL-27" value="4) after the earthquake had passed, you rush out to check out the damage of the earthquake and noticed a castle had floated to the sky!" style="rounded=0;whiteSpace=wrap;html=1;fillColor=#f5f5f5;fontColor=#333333;strokeColor=#666666;fontSize=16;autosize=0;" parent="1" vertex="1">
          <mxGeometry x="-1880" y="-110" width="420" height="80" as="geometry" />
        </mxCell>
        <mxCell id="GzvHI5Ee-rDhzpsascGL-50" style="edgeStyle=none;rounded=0;orthogonalLoop=1;jettySize=auto;html=1;exitX=0.5;exitY=1;exitDx=0;exitDy=0;entryX=0.5;entryY=0;entryDx=0;entryDy=0;strokeColor=#FFD966;strokeWidth=4;align=center;verticalAlign=middle;fontFamily=Helvetica;fontSize=11;fontColor=default;labelBackgroundColor=default;endArrow=classic;" parent="1" source="GzvHI5Ee-rDhzpsascGL-32" target="GzvHI5Ee-rDhzpsascGL-46" edge="1">
          <mxGeometry relative="1" as="geometry" />
        </mxCell>
        <mxCell id="GzvHI5Ee-rDhzpsascGL-32" value="1.4) god speaks to you" style="rounded=0;whiteSpace=wrap;html=1;fillColor=#f5f5f5;fontColor=#333333;strokeColor=#666666;fontSize=16;autosize=0;" parent="1" vertex="1">
          <mxGeometry x="-1760" y="19.96999999999999" width="180" height="50" as="geometry" />
        </mxCell>
        <mxCell id="GzvHI5Ee-rDhzpsascGL-34" value="&lt;div&gt;waaaaaooooow more changes&lt;/div&gt;&lt;div&gt;i just thought it would be better to make it clearer&lt;/div&gt;" style="rounded=1;whiteSpace=wrap;html=1;fillColor=#dae8fc;strokeColor=#6c8ebf;fontSize=16;autosize=1;fontColor=#080808;aspect=fixed;rotation=0;direction=west;" parent="1" vertex="1">
          <mxGeometry x="-2220" y="-116.85" width="249.75" height="76.85" as="geometry" />
        </mxCell>
        <mxCell id="GzvHI5Ee-rDhzpsascGL-45" style="edgeStyle=none;rounded=0;orthogonalLoop=1;jettySize=auto;html=1;exitX=0.5;exitY=1;exitDx=0;exitDy=0;entryX=0.5;entryY=0;entryDx=0;entryDy=0;strokeColor=#FFD966;strokeWidth=4;align=center;verticalAlign=middle;fontFamily=Helvetica;fontSize=11;fontColor=default;labelBackgroundColor=default;endArrow=classic;" parent="1" source="GzvHI5Ee-rDhzpsascGL-46" target="GzvHI5Ee-rDhzpsascGL-48" edge="1">
          <mxGeometry relative="1" as="geometry" />
        </mxCell>
        <mxCell id="GzvHI5Ee-rDhzpsascGL-46" value="god tells you that an ancient vengent spirit had escaped, causing both the earthquake and floating castle" style="rounded=0;whiteSpace=wrap;html=1;fillColor=#f5f5f5;fontColor=#333333;strokeColor=#666666;fontSize=16;autosize=1;" parent="1" vertex="1">
          <mxGeometry x="-1905" y="110" width="470" height="70" as="geometry" />
        </mxCell>
        <mxCell id="GzvHI5Ee-rDhzpsascGL-53" style="edgeStyle=none;rounded=0;orthogonalLoop=1;jettySize=auto;html=1;exitX=0.25;exitY=1;exitDx=0;exitDy=0;entryX=0.5;entryY=0;entryDx=0;entryDy=0;strokeColor=#7DFF69;strokeWidth=4;align=center;verticalAlign=middle;fontFamily=Helvetica;fontSize=11;fontColor=default;labelBackgroundColor=default;endArrow=classic;" parent="1" source="GzvHI5Ee-rDhzpsascGL-48" target="GzvHI5Ee-rDhzpsascGL-52" edge="1">
          <mxGeometry relative="1" as="geometry" />
        </mxCell>
        <mxCell id="GzvHI5Ee-rDhzpsascGL-60" style="edgeStyle=none;rounded=0;orthogonalLoop=1;jettySize=auto;html=1;exitX=0.75;exitY=1;exitDx=0;exitDy=0;entryX=0.5;entryY=0;entryDx=0;entryDy=0;strokeColor=#FFD966;strokeWidth=4;align=center;verticalAlign=middle;fontFamily=Helvetica;fontSize=11;fontColor=default;labelBackgroundColor=default;endArrow=classic;" parent="1" source="GzvHI5Ee-rDhzpsascGL-48" target="GzvHI5Ee-rDhzpsascGL-59" edge="1">
          <mxGeometry relative="1" as="geometry" />
        </mxCell>
        <mxCell id="GzvHI5Ee-rDhzpsascGL-48" value="evil spirit had stolen the cores of the villagers and you, the only one left unscathed, can save them" style="rounded=0;whiteSpace=wrap;html=1;fillColor=#f5f5f5;fontColor=#333333;strokeColor=#666666;fontSize=16;autosize=1;aspect=fixed;" parent="1" vertex="1">
          <mxGeometry x="-1854.875" y="210" width="369.75" height="70" as="geometry" />
        </mxCell>
        <mxCell id="rzeLRMac2jVEvDv4LcSN-6" style="edgeStyle=none;rounded=0;orthogonalLoop=1;jettySize=auto;html=1;exitX=0.5;exitY=1;exitDx=0;exitDy=0;entryX=0.5;entryY=0;entryDx=0;entryDy=0;strokeColor=#FFD966;strokeWidth=4;align=center;verticalAlign=middle;fontFamily=Helvetica;fontSize=11;fontColor=default;labelBackgroundColor=default;endArrow=classic;" parent="1" source="GzvHI5Ee-rDhzpsascGL-49" target="rzeLRMac2jVEvDv4LcSN-4" edge="1">
          <mxGeometry relative="1" as="geometry" />
        </mxCell>
        <mxCell id="GzvHI5Ee-rDhzpsascGL-49" value="god grants you power to defeat the&lt;span style=&quot;background-color: initial;&quot;&gt;&amp;nbsp;evil spirit (and save the world)&lt;/span&gt;" style="rounded=0;whiteSpace=wrap;html=1;fillColor=#f5f5f5;fontColor=#333333;strokeColor=#666666;fontSize=16;autosize=1;aspect=fixed;" parent="1" vertex="1">
          <mxGeometry x="-1915" y="680" width="490" height="92.77" as="geometry" />
        </mxCell>
        <mxCell id="GzvHI5Ee-rDhzpsascGL-57" style="edgeStyle=none;rounded=0;orthogonalLoop=1;jettySize=auto;html=1;exitX=0.5;exitY=1;exitDx=0;exitDy=0;entryX=0.25;entryY=0;entryDx=0;entryDy=0;strokeColor=#7DFF69;strokeWidth=4;align=center;verticalAlign=middle;fontFamily=Helvetica;fontSize=11;fontColor=default;labelBackgroundColor=default;endArrow=classic;" parent="1" source="GzvHI5Ee-rDhzpsascGL-52" target="GzvHI5Ee-rDhzpsascGL-56" edge="1">
          <mxGeometry relative="1" as="geometry" />
        </mxCell>
        <mxCell id="GzvHI5Ee-rDhzpsascGL-52" value="&amp;nbsp;a) you had a close relationship with the other villagers, so you agreed to help the god without hesitation" style="rounded=0;whiteSpace=wrap;html=1;fillColor=#f5f5f5;fontColor=#333333;strokeColor=#666666;fontSize=16;autosize=0;" parent="1" vertex="1">
          <mxGeometry x="-1990" y="364" width="280" height="110" as="geometry" />
        </mxCell>
        <mxCell id="GzvHI5Ee-rDhzpsascGL-58" style="edgeStyle=none;rounded=0;orthogonalLoop=1;jettySize=auto;html=1;exitX=0.5;exitY=1;exitDx=0;exitDy=0;entryX=0.5;entryY=0;entryDx=0;entryDy=0;strokeColor=#FFD966;strokeWidth=4;align=center;verticalAlign=middle;fontFamily=Helvetica;fontSize=11;fontColor=default;labelBackgroundColor=default;endArrow=classic;" parent="1" source="GzvHI5Ee-rDhzpsascGL-56" target="GzvHI5Ee-rDhzpsascGL-49" edge="1">
          <mxGeometry relative="1" as="geometry" />
        </mxCell>
        <mxCell id="GzvHI5Ee-rDhzpsascGL-56" value="1.4) the god is thankful for your coorperation" style="rounded=0;whiteSpace=wrap;html=1;fillColor=#f5f5f5;fontColor=#333333;strokeColor=#666666;fontSize=16;autosize=0;" parent="1" vertex="1">
          <mxGeometry x="-1825" y="570" width="310" height="60" as="geometry" />
        </mxCell>
        <mxCell id="rzeLRMac2jVEvDv4LcSN-2" style="edgeStyle=none;rounded=0;orthogonalLoop=1;jettySize=auto;html=1;exitX=0.5;exitY=1;exitDx=0;exitDy=0;entryX=0.75;entryY=0;entryDx=0;entryDy=0;strokeColor=#FFD966;strokeWidth=4;align=center;verticalAlign=middle;fontFamily=Helvetica;fontSize=11;fontColor=default;labelBackgroundColor=default;endArrow=classic;" parent="1" source="GzvHI5Ee-rDhzpsascGL-59" target="GzvHI5Ee-rDhzpsascGL-56" edge="1">
          <mxGeometry relative="1" as="geometry" />
        </mxCell>
        <mxCell id="GzvHI5Ee-rDhzpsascGL-59" value="b) you hesitate as you are unsure if you are capable enough, but with some encouragement from the god, you agreed to help" style="rounded=0;whiteSpace=wrap;html=1;fillColor=#f5f5f5;fontColor=#333333;strokeColor=#666666;fontSize=16;autosize=0;" parent="1" vertex="1">
          <mxGeometry x="-1660" y="374" width="280" height="90" as="geometry" />
        </mxCell>
        <mxCell id="GzvHI5Ee-rDhzpsascGL-62" value="&lt;div&gt;imagine if i made the god have different personalities reflecting players personality&lt;/div&gt;" style="rounded=1;whiteSpace=wrap;html=1;fillColor=#dae8fc;strokeColor=#6c8ebf;fontSize=16;autosize=0;fontColor=#080808;aspect=fixed;rotation=355;direction=west;" parent="1" vertex="1">
          <mxGeometry x="-2300" y="242.31" width="317.49" height="97.69" as="geometry" />
        </mxCell>
        <mxCell id="rzeLRMac2jVEvDv4LcSN-3" value="&lt;div&gt;neutral route?&lt;/div&gt;" style="rounded=1;whiteSpace=wrap;html=1;fillColor=#FFD966;strokeColor=#6c8ebf;fontSize=16;autosize=1;fontColor=#080808;aspect=fixed;rotation=15;direction=west;" parent="1" vertex="1">
          <mxGeometry x="-1375" y="-258" width="120" height="36.92" as="geometry" />
        </mxCell>
        <mxCell id="rzeLRMac2jVEvDv4LcSN-10" style="edgeStyle=none;rounded=0;orthogonalLoop=1;jettySize=auto;html=1;exitX=0.5;exitY=1;exitDx=0;exitDy=0;entryX=0.5;entryY=0;entryDx=0;entryDy=0;strokeColor=#FFD966;strokeWidth=4;align=center;verticalAlign=middle;fontFamily=Helvetica;fontSize=11;fontColor=default;labelBackgroundColor=default;endArrow=classic;" parent="1" source="rzeLRMac2jVEvDv4LcSN-4" target="rzeLRMac2jVEvDv4LcSN-9" edge="1">
          <mxGeometry relative="1" as="geometry" />
        </mxCell>
        <mxCell id="rzeLRMac2jVEvDv4LcSN-4" value="god gifts you some magic crystals that he thinks would help" style="rounded=0;whiteSpace=wrap;html=1;fillColor=#f5f5f5;fontColor=#333333;strokeColor=#666666;fontSize=16;autosize=1;aspect=fixed;" parent="1" vertex="1">
          <mxGeometry x="-1830" y="823.69" width="320" height="60.59" as="geometry" />
        </mxCell>
        <mxCell id="rzeLRMac2jVEvDv4LcSN-5" value="&lt;div&gt;shameless foreshadowing lmao&lt;/div&gt;" style="rounded=1;whiteSpace=wrap;html=1;fillColor=#dae8fc;strokeColor=#6c8ebf;fontSize=16;autosize=0;fontColor=#080808;aspect=fixed;rotation=355;direction=west;" parent="1" vertex="1">
          <mxGeometry x="-2080" y="820.14" width="219.99" height="67.69" as="geometry" />
        </mxCell>
        <mxCell id="rzeLRMac2jVEvDv4LcSN-16" style="edgeStyle=none;rounded=0;orthogonalLoop=1;jettySize=auto;html=1;exitX=0.5;exitY=1;exitDx=0;exitDy=0;entryX=0.5;entryY=0;entryDx=0;entryDy=0;strokeColor=#FFD966;strokeWidth=4;align=center;verticalAlign=middle;fontFamily=Helvetica;fontSize=11;fontColor=default;labelBackgroundColor=default;endArrow=classic;" parent="1" source="rzeLRMac2jVEvDv4LcSN-9" target="rzeLRMac2jVEvDv4LcSN-13" edge="1">
          <mxGeometry relative="1" as="geometry" />
        </mxCell>
        <mxCell id="rzeLRMac2jVEvDv4LcSN-17" style="edgeStyle=none;rounded=0;orthogonalLoop=1;jettySize=auto;html=1;exitX=0.75;exitY=1;exitDx=0;exitDy=0;entryX=0.5;entryY=0;entryDx=0;entryDy=0;strokeColor=#66F5FF;strokeWidth=4;align=center;verticalAlign=middle;fontFamily=Helvetica;fontSize=11;fontColor=default;labelBackgroundColor=default;endArrow=classic;" parent="1" source="rzeLRMac2jVEvDv4LcSN-9" target="rzeLRMac2jVEvDv4LcSN-15" edge="1">
          <mxGeometry relative="1" as="geometry" />
        </mxCell>
        <mxCell id="rzeLRMac2jVEvDv4LcSN-9" value="god sends you to the sky castle" style="rounded=0;whiteSpace=wrap;html=1;fillColor=#f5f5f5;fontColor=#333333;strokeColor=#666666;fontSize=16;autosize=1;aspect=fixed;" parent="1" vertex="1">
          <mxGeometry x="-1795" y="940" width="250" height="47.33" as="geometry" />
        </mxCell>
        <mxCell id="rzeLRMac2jVEvDv4LcSN-11" value="&lt;div&gt;tutorial time :D&lt;/div&gt;&lt;div&gt;make scenario where player skip the tutorial because why not kek&lt;/div&gt;" style="rounded=1;whiteSpace=wrap;html=1;fillColor=#dae8fc;strokeColor=#6c8ebf;fontSize=16;autosize=0;fontColor=#080808;aspect=fixed;rotation=0;direction=west;" parent="1" vertex="1">
          <mxGeometry x="-2232.5" y="950" width="249.99" height="76.92" as="geometry" />
        </mxCell>
        <mxCell id="rzeLRMac2jVEvDv4LcSN-23" style="edgeStyle=none;rounded=0;orthogonalLoop=1;jettySize=auto;html=1;exitX=0.5;exitY=1;exitDx=0;exitDy=0;entryX=0.5;entryY=0;entryDx=0;entryDy=0;strokeColor=#FFD966;strokeWidth=4;align=center;verticalAlign=middle;fontFamily=Helvetica;fontSize=11;fontColor=default;labelBackgroundColor=default;endArrow=classic;" parent="1" source="rzeLRMac2jVEvDv4LcSN-13" target="rzeLRMac2jVEvDv4LcSN-21" edge="1">
          <mxGeometry relative="1" as="geometry" />
        </mxCell>
        <mxCell id="rzeLRMac2jVEvDv4LcSN-13" value="you follow the god&#39;s guidance on how to fight against your enemy" style="rounded=0;whiteSpace=wrap;html=1;fillColor=#f5f5f5;fontColor=#333333;strokeColor=#666666;fontSize=16;autosize=1;aspect=fixed;" parent="1" vertex="1">
          <mxGeometry x="-1822.5" y="1081.9" width="305" height="57.74" as="geometry" />
        </mxCell>
        <mxCell id="rzeLRMac2jVEvDv4LcSN-19" style="edgeStyle=none;rounded=0;orthogonalLoop=1;jettySize=auto;html=1;exitX=0.5;exitY=1;exitDx=0;exitDy=0;entryX=0.5;entryY=0;entryDx=0;entryDy=0;strokeColor=#7DFF69;strokeWidth=4;align=center;verticalAlign=middle;fontFamily=Helvetica;fontSize=11;fontColor=default;labelBackgroundColor=default;endArrow=classic;" parent="1" source="rzeLRMac2jVEvDv4LcSN-12" target="rzeLRMac2jVEvDv4LcSN-18" edge="1">
          <mxGeometry relative="1" as="geometry" />
        </mxCell>
        <mxCell id="rzeLRMac2jVEvDv4LcSN-12" value="you hesitate to bring your sword down on your enemy" style="rounded=0;whiteSpace=wrap;html=1;fillColor=#f5f5f5;fontColor=#333333;strokeColor=#666666;fontSize=16;autosize=1;aspect=fixed;" parent="1" vertex="1">
          <mxGeometry x="-2195" y="1080" width="315" height="59.64" as="geometry" />
        </mxCell>
        <mxCell id="rzeLRMac2jVEvDv4LcSN-14" style="edgeStyle=none;rounded=0;orthogonalLoop=1;jettySize=auto;html=1;exitX=0.25;exitY=1;exitDx=0;exitDy=0;entryX=0.5;entryY=0;entryDx=0;entryDy=0;strokeColor=#7DFF69;strokeWidth=4;align=center;verticalAlign=middle;fontFamily=Helvetica;fontSize=11;fontColor=default;labelBackgroundColor=default;endArrow=classic;" parent="1" source="rzeLRMac2jVEvDv4LcSN-9" target="rzeLRMac2jVEvDv4LcSN-12" edge="1">
          <mxGeometry relative="1" as="geometry" />
        </mxCell>
        <mxCell id="rzeLRMac2jVEvDv4LcSN-24" style="edgeStyle=none;rounded=0;orthogonalLoop=1;jettySize=auto;html=1;exitX=0.5;exitY=1;exitDx=0;exitDy=0;entryX=0.5;entryY=0;entryDx=0;entryDy=0;strokeColor=#66F5FF;strokeWidth=4;align=center;verticalAlign=middle;fontFamily=Helvetica;fontSize=11;fontColor=default;labelBackgroundColor=default;endArrow=classic;" parent="1" source="rzeLRMac2jVEvDv4LcSN-15" target="rzeLRMac2jVEvDv4LcSN-22" edge="1">
          <mxGeometry relative="1" as="geometry" />
        </mxCell>
        <mxCell id="rzeLRMac2jVEvDv4LcSN-15" value="you rush towards the first enemy you see even though god warns you not approach your enemies hastily" style="rounded=0;whiteSpace=wrap;html=1;fillColor=#f5f5f5;fontColor=#333333;strokeColor=#666666;fontSize=16;autosize=0;" parent="1" vertex="1">
          <mxGeometry x="-1455" y="1070" width="280" height="90" as="geometry" />
        </mxCell>
        <mxCell id="uK1rEPxBVsfrKBv4Sku4-5" style="edgeStyle=none;shape=connector;rounded=0;orthogonalLoop=1;jettySize=auto;html=1;exitX=0.5;exitY=1;exitDx=0;exitDy=0;entryX=0.25;entryY=0;entryDx=0;entryDy=0;strokeColor=#7DFF69;strokeWidth=4;align=center;verticalAlign=middle;fontFamily=Helvetica;fontSize=11;fontColor=default;labelBackgroundColor=default;endArrow=classic;" edge="1" parent="1" source="rzeLRMac2jVEvDv4LcSN-18" target="uK1rEPxBVsfrKBv4Sku4-1">
          <mxGeometry relative="1" as="geometry" />
        </mxCell>
        <mxCell id="rzeLRMac2jVEvDv4LcSN-18" value="you recieve a light cut from the enemy. That was enough to strengthen your resolve to take the group of enemies down" style="rounded=0;whiteSpace=wrap;html=1;fillColor=#f5f5f5;fontColor=#333333;strokeColor=#666666;fontSize=16;autosize=0;" parent="1" vertex="1">
          <mxGeometry x="-2192.5" y="1210" width="310" height="100" as="geometry" />
        </mxCell>
        <mxCell id="uK1rEPxBVsfrKBv4Sku4-4" style="edgeStyle=none;shape=connector;rounded=0;orthogonalLoop=1;jettySize=auto;html=1;exitX=0.5;exitY=1;exitDx=0;exitDy=0;entryX=0.5;entryY=0;entryDx=0;entryDy=0;strokeColor=#FFD966;strokeWidth=4;align=center;verticalAlign=middle;fontFamily=Helvetica;fontSize=11;fontColor=default;labelBackgroundColor=default;endArrow=classic;" edge="1" parent="1" source="rzeLRMac2jVEvDv4LcSN-21" target="uK1rEPxBVsfrKBv4Sku4-1">
          <mxGeometry relative="1" as="geometry" />
        </mxCell>
        <mxCell id="rzeLRMac2jVEvDv4LcSN-21" value="you cleared your first group of enemies without a problem" style="rounded=0;whiteSpace=wrap;html=1;fillColor=#f5f5f5;fontColor=#333333;strokeColor=#666666;fontSize=16;autosize=0;" parent="1" vertex="1">
          <mxGeometry x="-1825" y="1210" width="310" height="100" as="geometry" />
        </mxCell>
        <mxCell id="uK1rEPxBVsfrKBv4Sku4-6" style="edgeStyle=none;shape=connector;rounded=0;orthogonalLoop=1;jettySize=auto;html=1;exitX=0.5;exitY=1;exitDx=0;exitDy=0;entryX=0.75;entryY=0;entryDx=0;entryDy=0;strokeColor=#66F5FF;strokeWidth=4;align=center;verticalAlign=middle;fontFamily=Helvetica;fontSize=11;fontColor=default;labelBackgroundColor=default;endArrow=classic;" edge="1" parent="1" source="rzeLRMac2jVEvDv4LcSN-22" target="uK1rEPxBVsfrKBv4Sku4-1">
          <mxGeometry relative="1" as="geometry" />
        </mxCell>
        <mxCell id="rzeLRMac2jVEvDv4LcSN-22" value="with some difficulty (and injuries?), you manage to take down your first group of enemies" style="rounded=0;whiteSpace=wrap;html=1;fillColor=#f5f5f5;fontColor=#333333;strokeColor=#666666;fontSize=16;autosize=0;" parent="1" vertex="1">
          <mxGeometry x="-1470" y="1210" width="310" height="100" as="geometry" />
        </mxCell>
        <mxCell id="uK1rEPxBVsfrKBv4Sku4-1" value="you defeat the spirits&#39; army" style="rounded=0;whiteSpace=wrap;html=1;fillColor=#f5f5f5;fontColor=#333333;strokeColor=#666666;fontSize=16;autosize=0;" vertex="1" parent="1">
          <mxGeometry x="-1785" y="1410" width="230" height="50" as="geometry" />
        </mxCell>
      </root>
    </mxGraphModel>
  </diagram>
</mxfile>
